<svg width="201" height="32" viewBox="0 0 201 32" fill="none" xmlns="http://www.w3.org/2000/svg">
<mask id="mask0_4_307" style="mask-type:luminance" maskUnits="userSpaceOnUse" x="0" y="0" width="201" height="31">
<path d="M201 0H0V30.8966H201V0Z" fill="white"/>
</mask>
<g mask="url(#mask0_4_307)">
<path d="M17.7491 7.12998C17.5019 5.81492 16.9502 4.60276 16.1677 3.56499C14.5407 1.40378 11.913 0 8.94859 0C4.00572 0 0 3.90091 0 8.71442C0 11.6012 1.44154 14.1601 3.66079 15.7446C5.14137 16.803 6.97014 17.4289 8.94859 17.4289H12.2026V13.4677H8.94859C6.25262 13.4677 4.06754 11.3398 4.06754 8.71442C4.06754 6.08903 6.25262 3.96109 8.94859 3.96109C11.0735 3.96109 12.8811 5.28249 13.5497 7.12998H17.7491Z" fill="#1A1A1A"/>
<path d="M28.0661 15.152C26.5855 14.0937 24.7567 13.4678 22.7782 13.4678H19.5243V17.4289H22.7782C25.4742 17.4289 27.6593 19.5568 27.6593 22.1822C27.6593 24.8075 25.4742 26.9355 22.7782 26.9355C20.0822 26.9355 17.8972 24.8075 17.8972 22.1822V14.8779V8.71445H13.8297V16.0188V22.1822C13.8297 24.1089 14.4723 25.8898 15.5592 27.3317C17.1862 29.4928 19.8138 30.8966 22.7782 30.8966C27.7211 30.8966 31.7268 26.9956 31.7268 22.1822C31.7268 19.2953 30.2853 16.7364 28.0661 15.152Z" fill="#1A1A1A"/>
<path d="M166.3 18.5884C166.3 16.8308 165.955 15.2748 165.266 13.9219C164.577 12.5686 163.597 11.5104 162.326 10.7471C161.056 9.98384 159.577 9.60211 157.891 9.60211C156.18 9.60211 154.672 9.97842 153.366 10.7298C152.06 11.4817 151.038 12.5398 150.302 13.9046C149.565 15.2695 149.198 16.8535 149.198 18.6579C149.198 20.462 149.565 22.0526 150.302 23.4285C151.038 24.805 152.077 25.869 153.42 26.6205C154.761 27.3719 156.3 27.7481 158.033 27.7481C159.292 27.7481 160.456 27.54 161.525 27.1234C162.593 26.7072 163.502 26.1174 164.25 25.3539C164.999 24.5908 165.548 23.5966 165.833 22.5784L162.276 22.5786C161.956 23.1025 161.515 23.5651 160.955 23.9664C160.147 24.5448 159.174 24.8337 158.033 24.8337C156.49 24.8337 155.26 24.3653 154.346 23.4285C153.57 22.6339 153.017 21.613 152.89 19.8057H166.256C166.271 19.5676 166.3 18.8987 166.3 18.5884ZM154.399 13.9046C155.302 13.0257 156.454 12.5859 157.855 12.5859C159.232 12.5859 160.349 13.0142 161.204 13.8697C161.938 14.6038 162.477 15.8445 162.599 17.0328H152.93C153.088 15.8445 153.629 14.6549 154.399 13.9046Z" fill="#1A1A1A"/>
<path d="M184.611 18.5884C184.611 16.8308 184.267 15.2748 183.578 13.9219C182.889 12.5686 181.909 11.5104 180.639 10.7471C179.368 9.98384 177.889 9.60211 176.203 9.60211C174.493 9.60211 172.984 9.97842 171.679 10.7298C170.371 11.4817 169.35 12.5398 168.614 13.9046C167.877 15.2695 167.51 16.8535 167.51 18.6579C167.51 20.462 167.877 22.0526 168.614 23.4285C169.35 24.805 170.389 25.869 171.731 26.6205C173.073 27.3719 174.611 27.7481 176.345 27.7481C177.605 27.7481 178.768 27.54 179.837 27.1234C180.906 26.7072 181.815 26.1174 182.563 25.3539C183.311 24.5908 183.86 23.5966 184.145 22.5784L180.587 22.5786C180.268 23.1025 179.827 23.5651 179.267 23.9664C178.459 24.5448 177.485 24.8337 176.345 24.8337C174.801 24.8337 173.572 24.3653 172.658 23.4285C171.882 22.6339 171.328 21.613 171.202 19.8057H184.568C184.583 19.5676 184.611 18.8987 184.611 18.5884ZM172.711 13.9046C173.614 13.0257 174.766 12.5859 176.168 12.5859C177.544 12.5859 178.661 13.0142 179.516 13.8697C180.25 14.6038 180.789 15.8445 180.911 17.0328H171.242C171.401 15.8445 171.941 14.6549 172.711 13.9046Z" fill="#1A1A1A"/>
<path d="M146.585 16.6938C145.694 15.675 144.573 15.0366 143.217 14.7782V14.5343C144.452 14.1254 145.416 13.4696 146.104 12.5696C146.791 11.6696 147.136 10.6159 147.136 9.4086C147.136 8.29314 146.834 7.29653 146.229 6.41876C145.623 5.54255 144.768 4.85175 143.664 4.35106C142.558 3.85038 141.269 3.58736 139.798 3.56519H129.368V16.2406H139.264C140.711 16.2406 141.859 16.5877 142.701 17.2801C143.544 17.9741 143.966 18.9421 143.966 20.1844C143.966 21.4028 143.544 22.3709 142.701 23.087C141.859 23.8048 140.617 24.1629 138.979 24.1629H133.028V17.8251H129.368V27.3317H140.012C141.556 27.3317 142.928 27.0387 144.127 26.4524C145.326 25.8661 146.258 25.0645 146.923 24.044C147.588 23.0237 147.921 21.8575 147.921 20.5456C147.921 18.9976 147.475 17.7142 146.585 16.6938ZM142.078 12.1797C141.294 12.7739 140.201 13.0718 138.799 13.0718H133.028V6.73406H138.728C140.179 6.73406 141.294 7.00024 142.078 7.53102C142.863 8.06182 143.253 8.82552 143.253 9.82371C143.253 10.7997 142.863 11.5856 142.078 12.1797Z" fill="#1A1A1A"/>
<path d="M197.087 14.6562C196.816 13.9359 196.362 13.3731 195.727 12.9676C195.038 12.5285 194.195 12.3083 193.198 12.3083C192.2 12.3083 191.345 12.5166 190.632 12.933C189.919 13.3494 189.563 13.9509 189.563 14.7371C189.563 15.3849 189.801 15.8767 190.276 16.2117C190.751 16.5473 191.333 16.7615 192.022 16.8535L195.976 17.4087H196.048C196.831 17.5247 197.574 17.7155 198.274 17.9812C198.974 18.2474 199.604 18.7042 200.163 19.3516C200.721 19.9995 201 20.8903 201 22.0232C201 23.1801 200.667 24.2037 200.003 25.0938C199.337 25.9847 198.423 26.667 197.259 27.1407C196.094 27.6147 194.788 27.8522 193.34 27.8522C191.82 27.8522 190.508 27.6147 189.403 27.1407C188.299 26.667 187.426 26.0481 186.785 25.2846C186.143 24.5214 185.704 23.4847 185.575 22.5785L189.133 22.5784C189.357 23.2233 189.796 23.7782 190.454 24.2437C191.238 24.7989 192.248 25.0765 193.483 25.0765C194.67 25.0765 195.625 24.8108 196.35 24.2786C197.075 23.7466 197.437 23.076 197.437 22.2661C197.437 21.6187 197.223 21.1618 196.796 20.8955C196.368 20.6301 195.763 20.4391 194.979 20.3231C194.955 20.3005 194.907 20.2884 194.836 20.2884L190.632 19.6985C189.183 19.4904 188.054 18.9587 187.247 18.1026C186.44 17.2471 186.037 16.1944 186.037 14.9452C186.037 13.8584 186.339 12.9042 186.945 12.0829C187.551 11.262 188.405 10.6256 189.51 10.1746C190.614 9.72354 191.879 9.49811 193.304 9.49811C194.516 9.49811 195.625 9.67759 196.636 10.0358C197.644 10.3946 198.489 10.9205 199.165 11.6146C199.842 12.3083 200.486 13.5812 200.645 14.6561L197.087 14.6562Z" fill="#1A1A1A"/>
<path d="M64.0451 3.56519H67.7058V27.3317H64.0451V3.56519Z" fill="#1A1A1A"/>
<path d="M74.3369 26.5684C72.9708 25.8051 71.9021 24.7415 71.1304 23.3766C70.3583 22.0118 69.9725 20.4391 69.9725 18.6579C69.9725 16.9001 70.3583 15.333 71.1304 13.9565C71.9021 12.5807 72.9708 11.5104 74.3369 10.7471C75.7025 9.98384 77.2641 9.60211 79.0221 9.60211C80.7557 9.60211 82.2998 9.98384 83.6538 10.7471C85.0076 11.5104 86.0703 12.5807 86.8425 13.9565C87.614 15.333 88.0005 16.9001 88.0005 18.6579C88.0005 20.4159 87.614 21.9831 86.8425 23.359C86.0703 24.7355 85.0076 25.8051 83.6538 26.5684C82.2998 27.3318 80.7557 27.7133 79.0221 27.7133C77.2641 27.7133 75.7025 27.3318 74.3369 26.5684ZM81.7833 23.9315C82.6026 23.4459 83.244 22.7519 83.7072 21.8498C84.1703 20.9478 84.4019 19.8954 84.4019 18.6925C84.4019 17.4667 84.1703 16.3971 83.7072 15.4832C83.244 14.5696 82.6026 13.8697 81.7833 13.3841C80.9638 12.8982 80.0314 12.6555 78.9864 12.6555C77.9649 12.6555 77.0448 12.8982 76.2252 13.3841C75.4058 13.8697 74.7645 14.5696 74.3014 15.4832C73.8381 16.3971 73.6065 17.4667 73.6065 18.6925C73.6065 19.8954 73.8381 20.9478 74.3014 21.8498C74.7645 22.7519 75.4058 23.4459 76.2252 23.9315C77.0448 24.4172 77.9649 24.6602 78.9864 24.6602C80.0314 24.6602 80.9638 24.4172 81.7833 23.9315Z" fill="#1A1A1A"/>
<path d="M91.8659 25.9785C90.6903 24.7988 90.1024 23.2027 90.1024 21.1903V9.90274H93.7365V20.3577C93.7365 21.6068 94.0572 22.6423 94.6984 23.463C95.3398 24.2843 96.3607 24.6946 97.7624 24.6946C99.1876 24.6946 100.322 24.1917 101.165 23.1854C102.008 22.1792 102.43 20.8667 102.43 19.2475V9.90274H106.091V27.3315H102.43V24.4517H102.252C101.776 25.4699 101.07 26.2733 100.132 26.8632C99.1932 27.453 98.0236 27.748 96.6224 27.748C94.6272 27.748 93.0417 27.1581 91.8659 25.9785Z" fill="#1A1A1A"/>
<path d="M112.352 26.5336C111.129 25.7706 110.167 24.7007 109.466 23.3243C108.766 21.9483 108.415 20.3926 108.415 18.6579C108.415 16.923 108.759 15.3792 109.449 14.0259C110.137 12.6728 111.093 11.6146 112.317 10.8511C113.539 10.088 114.923 9.70627 116.467 9.70627C117.892 9.70627 119.104 10.0131 120.102 10.6257C121.099 11.2388 121.823 11.9849 122.275 12.8635H122.453V3.56519H126.114V27.3317H122.453V24.5562H122.275C121.847 25.4354 121.123 26.1753 120.102 26.7766C119.08 27.3779 117.88 27.6787 116.503 27.6787C114.959 27.6787 113.575 27.2971 112.352 26.5336ZM119.905 23.9663C120.7 23.4805 121.336 22.7867 121.812 21.8845C122.286 20.9824 122.524 19.93 122.524 18.7272C122.524 17.5248 122.293 16.4666 121.829 15.5524C121.366 14.6391 120.731 13.9392 119.923 13.4533C119.116 12.9677 118.214 12.725 117.215 12.725C115.696 12.725 114.454 13.2686 113.492 14.3554C112.53 15.4429 112.05 16.8769 112.05 18.6579C112.05 19.884 112.275 20.9477 112.726 21.8498C113.178 22.7519 113.795 23.4518 114.579 23.9489C115.363 24.4467 116.242 24.6948 117.215 24.6948C118.214 24.6948 119.109 24.452 119.905 23.9663Z" fill="#1A1A1A"/>
<path d="M58.1812 19.4048C57.6556 20.8441 56.8073 22.0245 55.6327 22.9425C54.4329 23.8792 52.9071 24.3475 51.0543 24.3475C49.558 24.3475 48.1864 24.012 46.9393 23.3415C45.6923 22.6702 44.6948 21.6701 43.9465 20.3403C43.1985 19.01 42.8243 17.3446 42.8243 15.4482C42.8243 13.5518 43.1985 11.8863 43.9465 10.5559C44.6948 9.22619 45.6923 8.22601 46.9393 7.55479C48.1864 6.88418 49.558 6.54874 51.0543 6.54874C52.9071 6.54874 54.4329 7.01711 55.6327 7.95383C56.8062 8.87077 57.6538 10.05 58.1797 11.4872H61.9939C61.9939 11.4872 61.9638 11.1605 61.8141 10.6429C61.4339 9.27817 60.7687 8.02919 59.8189 6.89564C58.8687 5.76271 57.6513 4.86047 56.1671 4.18941C54.6824 3.5188 53.0017 3.1832 51.1257 3.1832C48.7976 3.1832 46.7194 3.69829 44.8908 4.72724C43.0615 5.75667 41.6307 7.20246 40.5975 9.06402C39.5719 10.913 39.0558 13.041 39.0484 15.4482C39.0558 17.8552 39.5719 19.9832 40.5975 21.8322C41.6307 23.6938 43.0615 25.1395 44.8908 26.1691C46.7194 27.1979 48.7976 27.7131 51.1257 27.7131C53.0017 27.7131 54.6824 27.3774 56.1671 26.7069C57.6513 26.0358 58.8687 25.1336 59.8189 24.0007C60.7687 22.8671 61.4339 21.6181 61.8141 20.2534C61.9638 19.7357 61.9939 19.409 61.9939 19.409H58.1825L58.1812 19.4048Z" fill="#1A1A1A"/>
</g>
</svg>
