<svg width="179" height="42" viewBox="0 0 179 42" fill="none" xmlns="http://www.w3.org/2000/svg">
<g clip-path="url(#clip0_4_422)">
<path d="M30.7452 9.2326H43.5585V12.8171H34.5892V18.0704H43.2531V21.6549H34.5892V27.897H43.8635V31.4814H30.7452V9.2326Z" fill="#0E1521"/>
<path d="M50.0223 31.4814H46.3615V9.2326H50.0223V31.4814Z" fill="#0E1521"/>
<path d="M65.0835 17.1157C65.5409 17.981 65.7851 19.0316 65.7851 20.8548V27.622C65.7851 28.302 66.0598 28.6109 66.5784 28.6109C66.7919 28.6109 66.9443 28.6109 67.1579 28.5799V31.7011C66.9138 31.763 66.1817 31.8557 65.7851 31.8557C63.9545 31.8557 62.6428 30.9594 62.2157 29.2289L62.1243 28.8583C61.087 30.6815 59.5921 31.8557 57.3041 31.8557C54.1922 31.8557 52.1484 30.0942 52.1484 27.313C52.1484 24.5319 53.9178 23.1106 57.5177 22.369L60.6905 21.7201C61.6665 21.5346 62.1243 21.1329 62.1243 20.175C62.1243 18.6608 61.0565 17.7337 59.2871 17.7337C57.4568 17.7337 56.4499 18.5681 56.2058 19.9277L52.5755 19.6805C52.9111 16.7758 55.4127 14.3964 59.4397 14.3964C62.1243 14.3964 64.1681 15.3853 65.0835 17.1157ZM62.1243 23.5741C61.7886 23.7904 61.453 23.9449 60.4463 24.2231L58.2804 24.8101C56.4499 25.3046 55.7787 26.108 55.7787 27.0967C55.7787 28.1783 56.6329 28.7346 58.0057 28.7346C59.9584 28.7346 62.1243 27.3749 62.1243 24.3466V23.5741Z" fill="#0E1521"/>
<path d="M74.4238 31.8557C70.763 31.8557 68.8715 30.0942 67.9258 27.9312L70.9156 25.9535C71.6172 27.5294 72.685 28.5183 74.4849 28.5183C75.8272 28.5183 76.407 27.8077 76.407 27.066C76.407 26.3551 75.8882 25.7991 74.607 25.181L71.9529 23.914C69.6646 22.8324 68.5665 21.3183 68.5665 19.2788C68.5665 16.714 70.763 14.3964 73.7831 14.3964C76.6203 14.3964 78.2373 15.8798 79.1525 17.3939L76.3764 19.557C75.7966 18.6299 75.0036 17.7337 73.7528 17.7337C72.7153 17.7337 72.0137 18.3209 72.0137 19.0934C72.0137 19.7114 72.38 20.2059 73.2342 20.6076L76.0408 21.9054C78.6033 23.0797 79.9152 24.5938 79.9152 27.0041C79.9152 29.9088 77.5966 31.8557 74.4238 31.8557Z" fill="#0E1521"/>
<path d="M86.8707 18.1046V31.4848H83.2098V18.1046H80.1591V14.7673H83.2098V11.3682L86.8707 10.7502V14.7673H89.9213V18.1046H86.8707Z" fill="#0E1521"/>
<path d="M92.9894 8.92499C94.2707 8.92499 95.125 9.79021 95.125 11.0881C95.125 12.3859 94.2707 13.2512 92.9894 13.2512C91.708 13.2512 90.8537 12.3859 90.8537 11.0881C90.8537 9.79021 91.708 8.92499 92.9894 8.92499ZM94.8198 31.4828H91.159V14.7653H94.8198V31.4828Z" fill="#0E1521"/>
<path d="M96.8451 23.1415C96.8451 18.0737 100.659 14.3964 105.418 14.3964C109.322 14.3964 111.549 16.3124 112.678 18.8153L109.597 20.6385C108.712 18.9698 107.431 17.8574 105.449 17.8574C102.611 17.8574 100.567 20.1131 100.567 23.1415C100.567 26.1388 102.611 28.3946 105.449 28.3946C107.584 28.3946 108.865 27.2514 109.689 25.2427L112.983 26.6641C111.976 29.6925 109.506 31.8557 105.418 31.8557C100.567 31.8557 96.8451 28.1783 96.8451 23.1415Z" fill="#0E1521"/>
<path d="M126.04 22.9527V31.4814H122.196V9.2326H130.554C135.345 9.2326 138.06 12.0446 138.06 16.0927C138.06 20.1408 135.345 22.9527 130.249 22.9527H126.04ZM126.04 12.8171V19.3682H130.249C132.66 19.3682 133.972 18.0704 133.972 16.0927C133.972 14.115 132.69 12.8171 130.432 12.8171H126.04Z" fill="#0E1521"/>
<path d="M151.58 17.1157C152.037 17.981 152.281 19.0316 152.281 20.8548V27.622C152.281 28.302 152.556 28.6109 153.075 28.6109C153.288 28.6109 153.441 28.6109 153.654 28.5799V31.7011C153.41 31.763 152.678 31.8557 152.281 31.8557C150.451 31.8557 149.139 30.9594 148.712 29.2289L148.621 28.8583C147.584 30.6815 146.089 31.8557 143.8 31.8557C140.689 31.8557 138.645 30.0942 138.645 27.313C138.645 24.5319 140.415 23.1106 144.014 22.369L147.187 21.7201C148.163 21.5346 148.621 21.1329 148.621 20.175C148.621 18.6608 147.553 17.7337 145.784 17.7337C143.953 17.7337 142.947 18.5681 142.702 19.9277L139.072 19.6805C139.408 16.7758 141.909 14.3964 145.936 14.3964C148.621 14.3964 150.664 15.3853 151.58 17.1157ZM148.621 23.5741C148.285 23.7904 147.949 23.9449 146.942 24.2231L144.777 24.8101C142.946 25.3046 142.275 26.108 142.275 27.0967C142.275 28.1783 143.13 28.7346 144.503 28.7346C146.454 28.7346 148.621 27.3749 148.621 24.3466V23.5741Z" fill="#0E1521"/>
<path d="M160.107 18.1046V31.4848H156.445V18.1046H153.395V14.7673H156.445V11.3682L160.107 10.7502V14.7673H163.157V18.1046H160.107Z" fill="#0E1521"/>
<path d="M177.909 18.194C178.124 19.09 178.154 19.8318 178.154 21.3767V31.4814H174.493V22.242C174.493 21.2223 174.462 20.697 174.371 20.1408C174.066 18.6574 173.15 17.8231 171.564 17.8231C169.855 17.8231 168.727 18.781 168.3 20.2334C168.178 20.666 168.056 21.1604 168.056 22.4892V31.4814H164.395V9.2326H168.056V17.3905C168.971 15.7527 170.588 14.3931 172.907 14.3931C175.622 14.3931 177.36 16 177.909 18.194Z" fill="#0E1521"/>
<path d="M6.84692 26.4838L6.86104 26.4976C6.86292 26.4931 6.86477 26.4883 6.86666 26.4838H6.84692Z" fill="#2BCC7E"/>
<path d="M17.6504 15.5147H6.84688L14.4862 7.75736L6.84688 0L0 6.95272L3.68048 10.6902C5.07946 12.1107 6.13043 13.7509 6.83367 15.5013C6.83805 15.5122 6.84254 15.5231 6.84688 15.534C8.24445 19.0369 8.25084 22.9782 6.86646 26.4853H17.6504V15.5147Z" fill="#2BCC7E"/>
<path d="M0.0368718 35.0796H0.0310669L6.84681 42.0007L14.4861 34.2433L6.86081 26.5002C6.15759 28.2763 5.09758 29.9406 3.68041 31.3797L0.0368718 35.0796Z" fill="#2BCC7E"/>
</g>
<defs>
<clipPath id="clip0_4_422">
<rect width="179" height="42" fill="white"/>
</clipPath>
</defs>
</svg>
