<svg width="340" height="120" viewBox="0 0 340 120" fill="none" xmlns="http://www.w3.org/2000/svg">
<g clip-path="url(#clip0_3_26)">
<path d="M122.247 59.9997C122.247 67.8789 120.666 75.681 117.594 82.9605C114.523 90.24 110.02 96.8543 104.345 102.426C98.6687 107.997 91.9304 112.417 84.5146 115.432C77.0987 118.447 69.1505 119.999 61.1236 119.999L61.1236 59.9997H122.247Z" fill="#3B4CFF"/>
<path d="M17.9027 102.426C6.43979 91.1737 5.15291e-07 75.9126 0 59.9997C-5.15291e-07 44.0868 6.43979 28.8256 17.9027 17.5735C29.3656 6.32138 44.9126 1.70721e-06 61.1236 0C77.3346 -1.70721e-06 92.8816 6.32137 104.344 17.5735L61.1236 59.9997L17.9027 102.426Z" fill="#3B4CFF"/>
<path d="M299.2 68.0245C299.2 55.4563 306.332 47.2108 317.901 47.2108C322.893 47.2108 326.776 49.1319 328.995 52.094V30.3199H340.01V88.1979H328.995V83.795C326.777 86.9168 322.656 88.8383 318.06 88.8383C306.332 88.8383 299.2 80.5928 299.2 68.0245ZM329.629 68.0245C329.629 61.2199 325.746 56.737 319.882 56.737C314.018 56.737 310.135 61.2199 310.135 68.0245C310.135 74.8292 314.018 79.2318 319.882 79.2318C325.746 79.2318 329.629 74.7489 329.629 68.0245Z" fill="#121212"/>
<path d="M299.043 57.1371H292.466C286.998 57.1371 284.542 61.7002 284.542 68.5847V88.1977H273.448V47.8509H284.542V54.5752C286.682 49.5319 289.693 47.8509 294.526 47.8509H299.043V57.1371Z" fill="#121212"/>
<path d="M269.011 74.5088C267.426 83.2345 259.819 88.8383 249.993 88.8383C236.442 88.8383 229.469 78.1112 229.469 67.9446C229.469 57.7781 235.65 47.2108 249.2 47.2108C262.751 47.2108 268.932 57.6978 268.932 66.9036C268.932 68.4248 268.852 69.6252 268.773 70.5061H240.088C240.88 76.1898 244.446 79.7123 249.993 79.7123C254.43 79.7123 257.362 77.951 258.234 74.5088H269.011ZM240.246 63.4614H257.917C257.599 58.9785 254.509 55.376 249.2 55.376C244.207 55.376 241.197 57.8576 240.246 63.4614Z" fill="#121212"/>
<path d="M213.463 29.9994H225.587V41.8473H213.463V29.9994ZM213.939 88.1977V47.851H225.032V88.1974L213.939 88.1977Z" fill="#121212"/>
<path d="M155.063 60.1792C155.063 41.0464 168.534 31.5202 183.194 31.5202C197.854 31.5202 207.125 39.7657 207.838 51.7735H196.031C195.16 45.7694 190.246 41.847 183.115 41.847C173.685 41.847 166.395 48.5713 166.395 60.1792C166.395 71.7871 173.685 79.0715 182.877 79.0715C189.771 79.0715 196.586 74.0281 196.586 68.8246C196.586 67.4636 195.714 66.5832 194.367 66.5832H183.669V57.5371H198.725C203.876 57.5371 207.68 61.7 207.68 66.5832V88.1975H197.141V79.6319C195.318 85.1555 189.454 88.8382 182.322 88.8382C168.138 88.8382 155.063 79.312 155.063 60.1792Z" fill="#121212"/>
</g>
<defs>
<clipPath id="clip0_3_26">
<rect width="340" height="120" fill="white"/>
</clipPath>
</defs>
</svg>
