<svg width="213" height="44" viewBox="0 0 213 44" fill="none" xmlns="http://www.w3.org/2000/svg">
<g clip-path="url(#clip0_4_389)">
<path d="M192.411 30.5479C192.867 31.0292 193.527 31.2813 194.416 31.2813H195.988C196.352 31.2813 196.648 30.9833 196.648 30.6167V29.7229C196.648 29.3563 196.352 29.0583 195.988 29.0583H194.256V9.67084C194.256 9.30417 193.96 9.00626 193.596 9.00626H192.388C192.024 9.00626 191.728 9.30417 191.728 9.67084V28.6458C191.728 29.4021 191.956 30.0208 192.388 30.525L192.411 30.5479Z" fill="#3C2F59"/>
<path d="M58.4832 28.6688C58.4832 30.1125 59.645 31.2813 61.0802 31.2813H69.7141C70.0786 31.2813 70.3747 30.9833 70.3747 30.6167V29.6083C70.3747 29.2417 70.0786 28.9438 69.7141 28.9438H61.103V9.99167C61.103 9.625 60.8068 9.32709 60.4423 9.32709H59.1211C58.7566 9.32709 58.4604 9.625 58.4604 9.99167V28.6458L58.4832 28.6688Z" fill="#3C2F59"/>
<path fill-rule="evenodd" clip-rule="evenodd" d="M85.2506 31.2812C84.3165 31.2812 83.6331 31.0292 83.2231 30.525C82.9269 30.1354 82.6991 29.6771 82.5624 29.15C82.4485 29.2875 82.3118 29.4479 82.3118 29.4479C82.3118 29.4479 81.7651 30.1583 80.7172 30.7771C80.6716 30.8229 80.6033 30.8458 80.5577 30.8917C79.7376 31.3958 78.7808 31.6479 77.6646 31.6479C75.956 31.6479 74.6347 31.2125 73.6779 30.3187C72.7439 29.4479 72.2655 28.2562 72.2655 26.7437C72.2655 25.2312 72.8123 24.0396 73.9285 23.2375C75.0448 22.4125 76.7989 22.0229 79.1453 22.0229H82.3346V20.4187C82.3346 19.2729 82.0157 18.3792 81.4006 17.7833C80.7855 17.1875 79.8287 16.8667 78.5302 16.8667C77.2317 16.8667 76.7306 17.0958 76.0699 17.5312C75.6371 17.8292 75.2498 18.1958 74.9081 18.6312C74.6575 18.9521 74.1563 19.0208 73.8602 18.7458L73.3134 18.2187C73.1084 18.0125 73.0401 17.7146 73.1995 17.4625C73.6324 16.775 74.2475 16.1562 75.0448 15.6521C76.0016 15.0333 77.209 14.7125 78.6669 14.7125C80.1249 14.7125 82.1524 15.1937 83.2231 16.1562C84.3165 17.1187 84.8405 18.4708 84.8405 20.1667V26.2625V29.0812H86.0251C86.3896 29.0812 86.6858 29.3792 86.6858 29.7458V30.6396C86.6858 31.0062 86.3896 31.3042 86.0251 31.3042H85.2733L85.2506 31.2812ZM82.3118 26.6292C82.1979 27.775 80.3071 29.4021 78.2797 29.5167C78.2113 29.5167 78.143 29.5167 78.0518 29.5167C77.0723 29.5167 76.2977 29.2875 75.7054 28.8521C75.1359 28.4167 74.8625 27.7979 74.8625 26.9958V26.3312C74.8625 25.5292 75.1815 24.9333 75.8193 24.5208C76.48 24.1083 77.5279 23.9021 78.9631 23.9021H82.2663V26.5604C82.2663 26.5604 82.2663 26.6062 82.2663 26.6292H82.3118Z" fill="#3C2F59"/>
<path d="M107.325 15.7208C107.325 15.3542 107.621 15.0562 107.986 15.0562H109.193C109.558 15.0562 109.854 15.3542 109.854 15.7208V16.8896C109.854 16.8896 111.54 14.6896 114.547 14.6896C117.554 14.6896 117.531 15.2396 118.488 16.3167C119.467 17.3937 119.946 18.9062 119.946 20.8771V30.6167C119.946 30.9833 119.649 31.2812 119.285 31.2812H118.078C117.713 31.2812 117.417 30.9833 117.417 30.6167V21.3125C117.417 18.4021 116.21 16.9583 113.772 16.9583C111.334 16.9583 109.831 18.8604 109.831 20.0292V30.6167C109.831 30.9833 109.535 31.2812 109.17 31.2812H107.963C107.598 31.2812 107.302 30.9833 107.302 30.6167V15.7208H107.325Z" fill="#3C2F59"/>
<path d="M130.767 31.6479C129.65 31.6479 128.625 31.4417 127.737 31.0521C126.848 30.6625 126.074 30.0896 125.459 29.3562C124.866 28.6229 124.388 27.7292 124.046 26.6979C123.727 25.6437 123.568 24.475 123.568 23.1917C123.568 21.9083 123.727 20.7167 124.046 19.6854C124.388 18.6312 124.844 17.7375 125.459 17.0271C126.074 16.2937 126.848 15.7208 127.737 15.3312C128.625 14.9417 129.65 14.7354 130.767 14.7354C132.361 14.7354 133.66 15.1021 134.616 15.8125C135.437 16.3854 136.074 17.1187 136.53 17.9896C136.69 18.2875 136.553 18.6542 136.257 18.8146L135.368 19.2729C135.027 19.4562 134.594 19.2729 134.411 18.9292C134.138 18.4021 133.751 17.9896 133.272 17.6687C132.612 17.2104 131.769 16.9812 130.767 16.9812C129.764 16.9812 129.354 17.0958 128.807 17.3479C128.238 17.5771 127.782 17.9208 127.395 18.3562C127.03 18.7687 126.734 19.2958 126.552 19.8917C126.37 20.4875 126.279 21.1292 126.279 21.8396V24.6125C126.279 26.0333 126.643 27.2021 127.395 28.1187C128.17 29.0125 129.286 29.4708 130.767 29.4708C132.247 29.4708 133.865 28.7604 134.776 27.3167C134.981 26.9729 135.437 26.8583 135.756 27.0646L136.484 27.5687C136.758 27.7521 136.849 28.0958 136.69 28.3708C136.188 29.3104 135.482 30.0896 134.594 30.6625C133.569 31.35 132.293 31.6937 130.744 31.6937L130.767 31.6479Z" fill="#3C2F59"/>
<path fill-rule="evenodd" clip-rule="evenodd" d="M169.289 31.2812C168.355 31.2812 167.671 31.0292 167.261 30.525C166.874 30.0208 166.623 29.4021 166.509 28.6458H166.35C165.986 29.6542 165.416 30.4104 164.596 30.9146C163.776 31.4187 162.819 31.6708 161.703 31.6708C159.994 31.6708 158.673 31.2354 157.716 30.3417C156.782 29.4708 156.304 28.2792 156.304 26.7667C156.304 25.2542 156.85 24.0625 157.967 23.2604C159.083 22.4354 160.837 22.0458 163.183 22.0458H166.373V20.4417C166.373 19.2958 166.054 18.4021 165.439 17.8062C164.824 17.2104 163.867 16.8896 162.568 16.8896C161.27 16.8896 160.769 17.1187 160.108 17.5542C159.47 17.9896 158.923 18.5854 158.491 19.3187L156.987 17.8979C157.42 17.0271 158.126 16.2708 159.083 15.675C160.04 15.0562 161.247 14.7354 162.705 14.7354C164.163 14.7354 166.191 15.2167 167.261 16.1792C168.355 17.1417 168.879 18.4937 168.879 20.1896V29.1042H170.063C170.428 29.1042 170.724 29.4021 170.724 29.7687V30.6625C170.724 31.0292 170.428 31.3271 170.063 31.3271H169.312L169.289 31.2812ZM162.113 29.5167C162.728 29.5167 163.32 29.4479 163.821 29.2875C164.345 29.15 164.778 28.9208 165.165 28.6687C165.53 28.3937 165.826 28.0729 166.031 27.7292C166.236 27.3854 166.35 26.9958 166.35 26.5604V23.9021H163.047C161.612 23.9021 160.564 24.1083 159.903 24.5208C159.265 24.9333 158.946 25.5521 158.946 26.3312V26.9958C158.946 27.7979 159.22 28.4167 159.789 28.8521C160.381 29.2875 161.156 29.5167 162.136 29.5167H162.113Z" fill="#3C2F59"/>
<path fill-rule="evenodd" clip-rule="evenodd" d="M203.004 31.0521C203.893 31.4417 204.895 31.6479 206.011 31.6479C207.128 31.6479 208.836 31.3042 209.952 30.6396C210.886 30.0437 211.615 29.3104 212.139 28.4167C212.299 28.1417 212.208 27.7979 211.957 27.6146L211.251 27.1104C210.909 26.8812 210.454 26.9958 210.226 27.3396C209.861 27.9125 209.383 28.3708 208.836 28.7146C208.084 29.1958 207.196 29.4479 206.194 29.4479C205.191 29.4479 204.758 29.3333 204.166 29.0812C203.574 28.8292 203.073 28.4854 202.663 28.05C202.275 27.6146 201.956 27.0875 201.729 26.5146C201.523 25.9187 201.41 25.2542 201.41 24.5667V23.8104H212.982V22.6187C212.982 21.4729 212.823 20.4187 212.481 19.4562C212.162 18.4937 211.706 17.6687 211.114 16.9812C210.522 16.2708 209.793 15.7208 208.927 15.3083C208.084 14.9187 207.105 14.7125 206.034 14.7125C204.963 14.7125 203.938 14.9187 203.027 15.3083C202.161 15.6979 201.387 16.2708 200.749 17.0271C200.134 17.7604 199.633 18.6542 199.291 19.6854C198.949 20.7396 198.79 21.8854 198.79 23.1687C198.79 24.4521 198.949 25.6437 199.291 26.675C199.655 27.7062 200.134 28.6 200.749 29.3333C201.387 30.0667 202.161 30.6396 203.027 31.0292L203.004 31.0521ZM204.12 17.1875C204.69 16.9354 205.305 16.8208 205.989 16.8208C207.287 16.8208 208.312 17.2562 209.087 18.15C209.884 18.9979 210.271 20.1667 210.271 21.6104V21.9542H201.364V21.725C201.364 21.0146 201.478 20.3729 201.706 19.7771C201.934 19.1812 202.252 18.6542 202.64 18.1958C203.05 17.7604 203.551 17.4167 204.098 17.1875H204.12Z" fill="#3C2F59"/>
<path d="M140.152 9.69376C140.152 9.32709 140.448 9.02917 140.813 9.02917H142.02C142.385 9.02917 142.681 9.32709 142.681 9.69376V16.8896C142.681 16.8896 144.367 14.6896 147.374 14.6896C150.381 14.6896 150.358 15.2396 151.315 16.3167C152.294 17.3938 152.773 18.9063 152.773 20.8771V30.6167C152.773 30.9833 152.477 31.2813 152.112 31.2813H150.905C150.54 31.2813 150.244 30.9833 150.244 30.6167V21.3125C150.244 18.4021 149.037 16.9583 146.599 16.9583C144.162 16.9583 142.658 18.8604 142.658 20.0292V30.6167C142.658 30.9833 142.362 31.2813 141.997 31.2813H140.79C140.426 31.2813 140.129 30.9833 140.129 30.6167V9.67084L140.152 9.69376Z" fill="#3C2F59"/>
<path d="M101.675 15.0792C102.04 15.0792 102.336 15.3771 102.336 15.7437V30.6396C102.336 31.0062 102.04 31.3042 101.675 31.3042H100.468C100.104 31.3042 99.8075 31.0062 99.8075 30.6396V29.4708C99.8075 29.4708 98.1217 31.6708 95.1146 31.6708C92.1076 31.6708 92.1304 31.1208 91.1736 30.0437C90.194 28.9667 89.7156 27.4542 89.7156 25.4833V15.7437C89.7156 15.3771 90.0118 15.0792 90.3762 15.0792H91.5836C91.9481 15.0792 92.2443 15.3771 92.2443 15.7437V25.0479C92.2443 27.9583 93.4517 29.4021 95.8892 29.4021C98.3267 29.4021 99.8303 27.5 99.8303 26.3312V15.7437C99.8303 15.3771 100.126 15.0792 100.491 15.0792H101.698H101.675Z" fill="#3C2F59"/>
<path fill-rule="evenodd" clip-rule="evenodd" d="M175.804 9.02917C176.169 9.02917 176.465 9.32709 176.465 9.69375V15.0792V16.8896C176.465 16.8896 178.128 14.7354 181.089 14.6896C181.158 14.6896 181.226 14.6896 181.294 14.6896C182.297 14.6896 183.208 14.8958 184.005 15.2854C184.825 15.675 185.509 16.2479 186.055 16.9813C186.648 17.7146 187.081 18.6083 187.377 19.6396C187.696 20.6938 187.855 21.8625 187.855 23.1458C187.855 24.4292 187.696 25.6208 187.377 26.6521C187.081 27.7063 186.648 28.6 186.055 29.3104C185.486 30.0438 184.802 30.6167 184.005 31.0063C183.185 31.3958 182.297 31.6021 181.294 31.6021C180.292 31.6021 181.203 31.6021 181.158 31.6021C178.173 31.6021 176.465 29.4021 176.465 29.4021V30.5708C176.465 30.9375 176.169 31.2354 175.804 31.2354H173.959V9.64792C173.959 9.28125 174.255 8.98334 174.619 8.98334H175.827L175.804 9.02917ZM181.59 29.3104C182.547 29.15 183.322 28.7375 183.937 28.0729C184.757 27.1792 185.144 26.0104 185.144 24.5667V21.7938C185.144 20.35 184.734 19.1813 183.937 18.3104C183.367 17.6688 182.615 17.2563 181.75 17.0729C181.34 16.9813 180.907 16.9583 180.451 16.9583C180.337 16.9583 180.246 16.9583 180.132 16.9583C178.378 17.1646 176.465 18.9063 176.465 20.0292V26.3083C176.465 27.4083 178.287 29.1271 180.018 29.3563C180.155 29.3563 180.315 29.3563 180.451 29.3792C180.884 29.3792 181.249 29.3563 181.59 29.3104Z" fill="#3C2F59"/>
<path fill-rule="evenodd" clip-rule="evenodd" d="M11.7144 0.9625C12.3295 0.34375 13.1496 0 14.0152 0H40.6914C42.4228 0 43.8124 1.39792 43.8124 3.13958V29.975C43.8124 30.8458 43.4707 31.6708 42.8556 32.2896L32.0575 43.1521C30.0984 45.1229 26.7268 43.725 26.7268 40.9292V32.0146H15.1087C13.3774 32.0146 11.9878 30.6167 11.9878 28.875V17.1875H3.12604C0.346791 17.1875 -1.04284 13.7958 0.916309 11.825L11.7144 0.9625ZM14.3342 17.1875V28.875C14.3342 29.3104 14.6759 29.6542 15.1087 29.6542H26.7268V17.9667C26.7268 17.5313 26.3851 17.1875 25.9523 17.1875H14.3342ZM29.0732 29.6771V17.9896C29.0732 16.2479 27.6836 14.85 25.9523 14.85H14.3342V5.15625C14.3342 5.15625 14.3342 5.15625 14.3342 5.13333V3.1625C14.3342 2.72708 14.6759 2.38333 15.1087 2.38333H18.0247H40.6686C41.1015 2.38333 41.4432 2.72708 41.4432 3.1625V26.9042C41.4432 26.9042 41.4432 26.9042 41.4432 26.9271V28.8979C41.4432 29.3333 41.1015 29.6771 40.6686 29.6771H34.9507H29.0732ZM29.0732 32.0375V40.9521C29.0732 41.6625 29.9161 42.0063 30.3945 41.5021L39.803 32.0375H29.0505H29.0732ZM11.5549 4.46875L11.9878 4.01042V14.8271H3.12604C2.41984 14.8271 2.07813 13.9792 2.5793 13.4979L11.5549 4.46875Z" fill="#DD2C6D"/>
</g>
<defs>
<clipPath id="clip0_4_389">
<rect width="213" height="44" fill="white"/>
</clipPath>
</defs>
</svg>
