<svg width="213" height="52" viewBox="0 0 213 52" fill="none" xmlns="http://www.w3.org/2000/svg">
<g clip-path="url(#clip0_4_348)">
<path d="M45.2359 10.3539L28.5393 0.96725C26.2447 -0.322416 23.4167 -0.322416 21.1223 0.96725L4.42082 10.3539C2.12637 11.6436 0.714767 14.0292 0.714767 16.6085V35.3867C0.714767 37.966 2.12637 40.3517 4.42082 41.6413L21.1175 51.0328C23.4118 52.3224 26.2399 52.3224 28.5344 51.0328L45.2311 41.6413C47.5254 40.3517 48.9371 37.966 48.9371 35.3867V16.6085C48.9371 14.0292 47.5254 11.6436 45.2311 10.3539H45.2359ZM35.8543 21.4507L31.9737 23.7655C30.1449 24.8615 29.3881 25.3198 28.5975 26.1937C27.8214 27.0581 27.2296 28.0738 26.8366 29.2313C26.6523 29.7651 26.5747 30.332 26.5747 30.8988L26.565 36.9409C26.565 37.3519 26.2206 37.6874 25.7986 37.6874H23.863C23.441 37.6874 23.0966 37.3519 23.0966 36.9409L23.0869 30.8988C23.0869 30.332 23.0044 29.7651 22.825 29.2313C22.432 28.0738 21.8402 27.0581 21.0641 26.1937C20.2686 25.3198 19.5118 24.8615 17.683 23.7655L13.8072 21.4507C13.4434 21.2334 13.3318 20.7753 13.555 20.421L14.5639 18.8147C14.7871 18.4652 15.2625 18.3518 15.6215 18.5691L20.7536 21.6397C21.9614 22.3625 23.3537 22.7499 24.7702 22.7499H24.8914C26.3079 22.7499 27.7 22.3625 28.908 21.6397L34.0401 18.5691C34.3991 18.3518 34.8697 18.4652 35.0928 18.8147L36.1066 20.421C36.3249 20.7753 36.2133 21.2334 35.8543 21.4507Z" fill="black"/>
<path d="M76.9074 19.0046H64.9015C64.756 19.0046 64.6639 19.0991 64.6639 19.2361V21.8154C64.6639 21.9571 64.7609 22.0469 64.9015 22.0469H69.0054C69.1025 22.0469 69.1461 22.0941 69.1461 22.1886V34.5797C69.1461 34.7215 69.2431 34.8112 69.3838 34.8112H72.4156C72.5562 34.8112 72.6533 34.7168 72.6533 34.5797V22.1886C72.6533 22.0941 72.7018 22.0469 72.794 22.0469H76.8977C77.0384 22.0469 77.1354 21.9523 77.1354 21.8154V19.2361C77.1354 19.0943 77.0384 19.0046 76.8977 19.0046H76.9074Z" fill="black"/>
<path d="M91.0671 19.0043H80.662C80.5164 19.0043 80.4244 19.0989 80.4244 19.2359V34.5796C80.4244 34.7212 80.5213 34.8111 80.662 34.8111H91.0671C91.2078 34.8111 91.3048 34.7166 91.3048 34.5796V32.09C91.3048 31.9482 91.2078 31.8586 91.0671 31.8586H84.0723C83.9752 31.8586 83.9266 31.8114 83.9266 31.7168V28.4384C83.9266 28.3438 83.9752 28.2966 84.0723 28.2966H89.898C90.0435 28.2966 90.1357 28.2021 90.1357 28.0651V25.5992C90.1357 25.4574 90.0387 25.3677 89.898 25.3677H84.0723C83.9752 25.3677 83.9266 25.3205 83.9266 25.2259V22.0892C83.9266 21.9947 83.9752 21.9475 84.0723 21.9475H91.0671C91.2078 21.9475 91.3048 21.8529 91.3048 21.716V19.2264C91.3048 19.0847 91.2078 18.9949 91.0671 18.9949V19.0043Z" fill="black"/>
<path d="M103.238 19.2361C103.189 19.0943 103.097 19.0046 102.928 19.0046H99.92C99.7502 19.0046 99.6581 19.0991 99.6095 19.2361L94.0213 34.5797C93.9729 34.7215 94.0213 34.8112 94.1863 34.8112H97.3151C97.4801 34.8112 97.577 34.7404 97.6256 34.5797L98.5327 31.8115H104.213L105.144 34.5797C105.193 34.7404 105.285 34.8112 105.455 34.8112H108.559C108.724 34.8112 108.773 34.7168 108.724 34.5797L103.233 19.2361H103.238ZM99.5126 28.9061L101.351 23.3743H101.424L103.262 28.9061H99.5126Z" fill="black"/>
<path d="M126.58 19.0046H123.786C123.597 19.0046 123.476 19.0754 123.403 19.2361L119.367 28.2543H119.27L115.166 19.2361C115.093 19.0754 114.977 19.0046 114.783 19.0046H111.94C111.8 19.0046 111.703 19.0991 111.703 19.2361V34.5797C111.703 34.7215 111.8 34.8112 111.94 34.8112H114.637C114.783 34.8112 114.875 34.7168 114.875 34.5797V25.6749H114.972L117.98 32.3453C118.077 32.5531 118.217 32.6476 118.436 32.6476H120.08C120.294 32.6476 120.439 32.5531 120.536 32.3453L123.544 25.6749H123.641V34.5797C123.641 34.7215 123.738 34.8112 123.878 34.8112H126.575C126.716 34.8112 126.813 34.7168 126.813 34.5797V19.2361C126.813 19.0943 126.716 19.0046 126.575 19.0046H126.58Z" fill="black"/>
<path d="M149.922 19.0046H146.867C146.701 19.0046 146.604 19.0754 146.58 19.2361L144.334 29.1613H144.285L141.424 19.2361C141.376 19.0943 141.278 19.0046 141.138 19.0046H139.062C138.892 19.0046 138.8 19.0991 138.751 19.2361L135.981 29.1613H135.933L133.595 19.2361C133.57 19.0943 133.473 19.0046 133.309 19.0046H130.228C130.063 19.0046 130.015 19.0991 130.039 19.2361L134.24 34.5797C134.288 34.7215 134.385 34.8112 134.526 34.8112H136.913C137.078 34.8112 137.175 34.7168 137.223 34.5797L140.066 24.7443H140.114L142.933 34.5797C142.982 34.7215 143.073 34.8112 143.243 34.8112H145.629C145.795 34.8112 145.916 34.7168 145.941 34.5797L150.116 19.2361C150.141 19.0943 150.092 19.0046 149.928 19.0046H149.922Z" fill="black"/>
<path d="M158.809 18.7492C155.966 18.7492 153.726 20.0294 152.891 22.5852C152.532 23.6764 152.439 24.5599 152.439 26.9078C152.439 29.2556 152.537 30.1389 152.891 31.2302C153.726 33.786 155.972 35.0661 158.809 35.0661C161.647 35.0661 163.893 33.786 164.728 31.2302C165.086 30.1389 165.184 29.2556 165.184 26.9078C165.184 24.5599 165.086 23.6764 164.728 22.5852C163.893 20.0294 161.647 18.7492 158.809 18.7492ZM161.365 30.3043C161.007 31.3955 160.147 32.0475 158.809 32.0475C157.47 32.0475 156.612 31.3955 156.253 30.3043C156.063 29.7468 155.99 28.9816 155.99 26.9124C155.99 24.8434 156.063 24.078 156.253 23.5206C156.612 22.4293 157.47 21.7773 158.809 21.7773C160.147 21.7773 161.007 22.4293 161.365 23.5206C161.556 24.078 161.627 24.8434 161.627 26.9124C161.627 28.9816 161.556 29.7468 161.365 30.3043Z" fill="black"/>
<path d="M178.149 28.3015C179.939 27.5361 181.036 25.93 181.036 23.9081C181.036 21.0264 178.838 19.0046 175.521 19.0046H169.049C168.909 19.0046 168.812 19.0991 168.812 19.2361V34.5797C168.812 34.7215 168.909 34.8112 169.049 34.8112H172.081C172.221 34.8112 172.318 34.7168 172.318 34.5797V28.9297C172.318 28.8353 172.367 28.7881 172.46 28.7881H174.633L177.426 34.5751C177.499 34.7356 177.572 34.8066 177.786 34.8066H181.176C181.346 34.8066 181.415 34.6648 181.346 34.5277L178.149 28.2967V28.3015ZM175.33 25.8828H172.469C172.373 25.8828 172.328 25.8356 172.328 25.741V22.0893C172.328 21.9949 172.377 21.9477 172.469 21.9477H175.33C176.67 21.9477 177.529 22.7129 177.529 23.8987C177.529 25.0844 176.67 25.8734 175.33 25.8734V25.8828Z" fill="black"/>
<path d="M192.663 25.3064L197.582 19.3069C197.704 19.1651 197.631 19.0046 197.485 19.0046H194.022C193.833 19.0046 193.736 19.0518 193.614 19.2125L188.221 26.0717V19.2361C188.221 19.0943 188.123 19.0046 187.983 19.0046H184.951C184.811 19.0046 184.714 19.0991 184.714 19.2361V34.5797C184.714 34.7215 184.811 34.8112 184.951 34.8112H187.983C188.123 34.8112 188.221 34.7168 188.221 34.5797V30.5596L190.345 27.9566L194.022 34.6033C194.119 34.764 194.187 34.8112 194.382 34.8112H197.888C198.053 34.8112 198.126 34.6931 198.029 34.5325L192.659 25.3017L192.663 25.3064Z" fill="black"/>
<path d="M207.182 25.3063L206.324 25.1881C204.461 24.933 203.791 24.352 203.791 23.445C203.791 22.4435 204.533 21.7255 205.964 21.7255C207.303 21.7255 208.497 22.1458 209.734 22.9348C209.855 23.0056 209.971 22.982 210.068 22.864L211.523 20.7476C211.645 20.5869 211.621 20.4925 211.475 20.3979C210.112 19.3728 208.108 18.7492 205.96 18.7492C202.453 18.7492 200.207 20.6766 200.207 23.5866C200.207 26.4967 202.046 27.8856 205.339 28.3296L206.197 28.4478C208.132 28.7029 208.706 29.2839 208.706 30.2145C208.706 31.3294 207.749 32.0995 206.057 32.0995C204.364 32.0995 202.885 31.3105 201.807 30.4744C201.687 30.38 201.545 30.38 201.448 30.498L199.634 32.5198C199.512 32.6616 199.561 32.8223 199.658 32.9167C200.925 34.1024 203.384 35.0803 205.911 35.0803C210.112 35.0803 212.285 32.9639 212.285 30.1059C212.285 27.2479 210.52 25.7598 207.178 25.3157L207.182 25.3063Z" fill="black"/>
</g>
<defs>
<clipPath id="clip0_4_348">
<rect width="213" height="52" fill="white"/>
</clipPath>
</defs>
</svg>
