<svg width="191" height="28" viewBox="0 0 191 28" fill="none" xmlns="http://www.w3.org/2000/svg">
<g clip-path="url(#clip0_6_83)">
<path d="M55.3426 24.1818C52.4553 24.1818 50.253 23.4544 48.7356 21.9995C47.2182 20.5446 46.4595 18.3934 46.4595 15.546V2.91956H50.0317V15.5148C50.0317 17.4685 50.4637 18.9182 51.3278 19.8639C52.1919 20.8096 53.488 21.2824 55.2162 21.2824C58.6936 21.2824 60.4323 19.3599 60.4323 15.5148V2.91956H63.7832V15.546C63.7832 18.3518 63.0351 20.4926 61.5387 21.9683C60.0424 23.444 57.977 24.1818 55.3426 24.1818ZM87.9564 2.91956V23.7142H84.8267L73.4145 8.25071V23.7142H70.0952V2.91956H73.4462L84.637 18.196V2.91956H87.9564ZM100.717 24.0883C99.221 24.0883 97.967 23.9584 96.9554 23.6986C95.9438 23.4388 94.869 23.0179 93.7309 22.4359V19.0065C94.5529 19.6716 95.5592 20.2068 96.75 20.6121C97.9407 21.0174 99.1894 21.2201 100.496 21.2201C101.782 21.2201 102.751 20.9603 103.404 20.4406C104.058 19.921 104.384 19.1832 104.384 18.2271C104.384 17.5828 104.195 17.0528 103.815 16.6371C103.436 16.2214 102.962 15.8785 102.393 15.6083L101.923 15.3959C101.409 15.1738 100.765 14.9224 99.9903 14.6419L99.2948 14.3924C98.1356 13.9975 97.182 13.5922 96.4338 13.1766C95.6857 12.7609 95.0587 12.1685 94.5529 11.3995C94.0471 10.6305 93.7942 9.64325 93.7942 8.43776C93.7942 7.44012 94.0471 6.49445 94.5529 5.60072C95.0587 4.70699 95.849 3.97436 96.9238 3.40279C97.9987 2.83122 99.3475 2.54544 100.97 2.54544C102.15 2.54544 103.136 2.65456 103.926 2.87279C104.716 3.09103 105.659 3.45994 106.755 3.97955V7.34659C105.681 6.6815 104.753 6.18788 103.973 5.86572C103.194 5.54356 102.266 5.38249 101.192 5.38249C99.9481 5.38249 98.9997 5.63189 98.3464 6.13072C97.6931 6.62954 97.3664 7.28424 97.3664 8.09482C97.3664 8.78071 97.5455 9.33668 97.9038 9.76276C98.2621 10.1888 98.731 10.5318 99.3106 10.7916C99.7614 10.9936 100.368 11.224 101.131 11.4827L101.824 11.7113C103.109 12.127 104.179 12.5582 105.032 13.0051C105.886 13.452 106.587 14.0651 107.135 14.8445C107.683 15.6239 107.957 16.6163 107.957 17.8218C107.957 18.965 107.698 20.0094 107.182 20.9551C106.666 21.9007 105.865 22.6594 104.78 23.2309C103.694 23.8025 102.34 24.0883 100.717 24.0883ZM118.41 5.81895H111.613V2.91956H128.716V5.81895H121.887V23.7142H118.41V5.81895ZM143.531 18.0712H134.901L132.846 23.7142H129.369L137.588 2.91956H141.287L149.285 23.7142H145.618L143.531 18.0712ZM142.488 15.2654L139.2 6.34895L135.944 15.2654H142.488ZM162.109 24.0259C155.428 24.0259 152.088 20.4511 152.088 13.3013C152.088 6.15147 155.428 2.57662 162.109 2.57662C164.28 2.57662 166.461 3.08583 168.653 4.10426V7.19071C166.63 6.02679 164.596 5.44484 162.552 5.44484C160.191 5.44484 158.458 6.06836 157.351 7.31542C156.245 8.56248 155.692 10.5681 155.692 13.3324C155.692 16.0968 156.25 18.0868 157.367 19.3027C158.484 20.5186 160.244 21.1265 162.647 21.1265C164.712 21.1265 166.714 20.5654 168.653 19.443V22.5295C167.684 23.0075 166.624 23.3764 165.476 23.6362C164.327 23.896 163.205 24.0259 162.109 24.0259ZM177.655 14.1654V23.7142H174.146V2.91956H177.655V11.1873L184.836 2.91956H188.961L180.947 12.6763L190.277 23.7142H186.127L177.655 14.1654Z" fill="#090B45"/>
<path d="M30.098 14.4731L32.5845 15.6525C33.7117 16.1869 33.7802 17.2024 32.7369 17.9091L18.6353 27.4606C18.1136 27.8139 17.426 27.9905 16.7384 27.9905C16.0507 27.9905 15.3631 27.8139 14.8414 27.4606L0.739783 17.9091C-0.303524 17.2024 -0.23485 16.1869 0.89223 15.6525L3.37734 14.4731L14.1432 19.9425C14.8565 20.305 15.7783 20.5045 16.7384 20.5045C17.6985 20.5045 18.6202 20.305 19.3335 19.9425L30.098 14.4731ZM26.7335 12.8774L28.4629 13.698L18.7639 18.6254C18.2069 18.9084 17.4727 19.0498 16.7385 19.0498C16.0043 19.0498 15.27 18.9084 14.713 18.6254L5.01246 13.698L6.26557 13.1027L6.26647 13.7151H26.7344L26.7335 12.8774Z" fill="#C5CCF3"/>
<path d="M28.5441 8.08902L32.5394 9.71235C33.6914 10.1805 33.7225 11.0265 32.6084 11.5925L18.7639 18.6254C18.2069 18.9083 17.4727 19.0498 16.7385 19.0498C16.0043 19.0498 15.27 18.9083 14.713 18.6254L0.868522 11.5925C-0.245473 11.0265 -0.214491 10.1805 0.937531 9.71235L4.9311 8.08902L14.203 11.2288C14.8971 11.4639 15.7975 11.5933 16.7384 11.5933C17.6793 11.5933 18.5797 11.4639 19.2737 11.2288L28.5441 8.08902ZM16.7384 3.79102C17.4977 3.79102 18.2569 3.90799 18.8329 4.14205L26.4999 7.25665L18.8734 9.84059C18.2862 10.0394 17.5123 10.1388 16.7384 10.1388C15.9644 10.1388 15.1904 10.0394 14.6033 9.84059L6.97661 7.25665L14.644 4.14205C15.2199 3.90799 15.9791 3.79102 16.7384 3.79102Z" fill="#9AA5EA"/>
<path d="M16.7383 0C17.5251 0 18.3117 0.0808485 18.9085 0.242545L32.4637 3.91515C33.6572 4.23855 33.6731 4.82849 32.4987 5.22618L18.8734 9.84061C18.2862 10.0394 17.5123 10.1388 16.7383 10.1388C15.9644 10.1388 15.1904 10.0394 14.6033 9.84061L0.978005 5.22618C-0.196275 4.82849 -0.180505 4.23855 1.01301 3.91515L14.5682 0.242545C15.165 0.0808485 15.9517 0 16.7383 0Z" fill="url(#paint0_linear_6_83)"/>
</g>
<defs>
<linearGradient id="paint0_linear_6_83" x1="0.107483" y1="4.5851" x2="15.3891" y2="9.37451" gradientUnits="userSpaceOnUse">
<stop stop-color="#96A2EF"/>
<stop offset="1" stop-color="#6F7FE2"/>
</linearGradient>
<clipPath id="clip0_6_83">
<rect width="191" height="28" fill="white"/>
</clipPath>
</defs>
</svg>
