<svg width="206" height="28" viewBox="0 0 206 28" fill="none" xmlns="http://www.w3.org/2000/svg">
<path fill-rule="evenodd" clip-rule="evenodd" d="M20.9222 3.90109L16.5634 1.00867L12.2047 3.90109V19.1946H15.6917V5.58113L16.5634 5.00957L17.4351 5.58113V19.0213C17.4351 21.8937 16.5634 24.7862 13.2508 26.8153C16.6235 26.8153 20.824 23.0488 20.9222 18.1577V3.90109Z" fill="#FF6720"/>
<path fill-rule="evenodd" clip-rule="evenodd" d="M6.55383 23.3304C4.77917 22.7822 3.48697 21.1353 3.48697 19.1945V18.3285C3.48697 17.4625 2.61523 16.5965 2.61523 15.7306C2.61523 15.1283 3.03628 14.5262 3.2931 13.924C3.41619 13.6867 3.48697 13.4179 3.48697 13.1325C3.48697 12.1759 2.70642 11.4005 1.74348 11.4005C0.780734 11.4005 0 12.1759 0 13.1325C0 13.4179 0.0707856 13.6866 0.19405 13.924C0.450691 14.5261 0.871744 15.1283 0.871744 15.7306C0.871744 16.5965 0 17.4625 0 18.3285V19.1945C0 23.492 3.51957 26.9884 7.84569 26.9884L8.54308 25.2854L8.51329 25.2101C8.88768 25.4632 9.28846 25.6909 9.71261 25.891L11.1219 23.1954C9.60818 22.4809 8.71744 20.8578 8.71744 19.1945V18.3285C8.71744 17.4625 7.84569 16.5965 7.84569 15.7306C7.84569 15.1283 8.26675 14.5262 8.52356 13.924C8.64664 13.6867 8.71744 13.4179 8.71744 13.1325C8.71744 12.1759 7.93687 11.4005 6.97394 11.4005C6.01102 11.4005 5.23045 12.1759 5.23045 13.1325C5.23045 13.4179 5.30125 13.6866 5.42433 13.924C5.68114 14.5261 6.1022 15.1283 6.1022 15.7306C6.1022 16.5965 5.23045 17.4625 5.23045 18.3285V19.1945C5.23045 20.7561 5.70924 22.1611 6.55383 23.3304ZM3.48697 8.45612C3.48697 7.49955 2.70642 6.72413 1.74348 6.72413C0.780558 6.72413 0 7.49955 0 8.45612C0 9.41271 0.780558 10.1881 1.74348 10.1881C2.70642 10.1881 3.48697 9.41271 3.48697 8.45612ZM3.48697 3.77975C3.48697 2.82317 2.70642 2.04776 1.74348 2.04776C0.780558 2.04776 0 2.82317 0 3.77975C0 4.73632 0.780558 5.51173 1.74348 5.51173C2.70642 5.51173 3.48697 4.73632 3.48697 3.77975ZM8.71744 8.45612C8.71744 7.49955 7.93687 6.72413 6.97394 6.72413C6.01102 6.72413 5.23045 7.49955 5.23045 8.45612C5.23045 9.41271 6.01102 10.1881 6.97394 10.1881C7.93687 10.1881 8.71744 9.41271 8.71744 8.45612ZM8.71744 3.77975C8.71744 2.82317 7.93687 2.04776 6.97394 2.04776C6.01102 2.04776 5.23045 2.82317 5.23045 3.77975C5.23045 4.73632 6.01102 5.51173 6.97394 5.51173C7.93687 5.51173 8.71744 4.73632 8.71744 3.77975Z" fill="#FF6720"/>
<path fill-rule="evenodd" clip-rule="evenodd" d="M7.8457 23.5236C10.2491 23.5236 12.2044 21.5811 12.2044 19.1937V8.45529H15.6914V19.1937C15.6914 23.4912 12.1718 26.9876 7.8457 26.9876V23.5236Z" fill="#FF6720"/>
<path fill-rule="evenodd" clip-rule="evenodd" d="M52.6736 17.2405V3.1253C52.6736 2.91894 52.7996 2.79514 53.0093 2.79514H56.2827C56.4926 2.79514 56.6185 2.91894 56.6185 3.1253V17.323C56.6185 22.5233 53.0513 25.5363 48.2252 25.5363C43.4411 25.5363 39.832 22.5233 39.832 17.323V3.1253C39.832 2.91894 39.9579 2.79514 40.1677 2.79514H43.4411C43.6509 2.79514 43.7768 2.91894 43.7768 3.1253V17.2405C43.7768 20.3359 45.6234 22.0281 48.1832 22.0281C50.8271 22.0281 52.6736 20.3359 52.6736 17.2405Z" fill="#212125"/>
<path fill-rule="evenodd" clip-rule="evenodd" d="M59.976 22.5641C59.8501 22.4403 59.7663 22.234 59.8921 22.0688L61.9484 19.7164C62.0743 19.5513 62.2841 19.5513 62.41 19.6751C63.8788 20.8308 66.061 22.0276 68.621 22.0276C71.3488 22.0276 72.9015 20.6657 72.9015 18.8084C72.9015 17.1987 71.8943 16.1257 68.7469 15.713L67.5299 15.5479C63.1234 14.9701 60.6474 12.8652 60.6474 9.15063C60.6474 5.10594 63.669 2.38196 68.3692 2.38196C71.2229 2.38196 73.9506 3.28995 75.7552 4.61066C75.9231 4.73449 75.9651 4.85831 75.8391 5.06467L74.2445 7.49974C74.1185 7.66483 73.9506 7.7061 73.7828 7.58229C71.9363 6.38538 70.2158 5.84884 68.3272 5.84884C66.0192 5.84884 64.7601 7.08702 64.7601 8.86173C64.7601 10.3888 65.8513 11.4619 68.9567 11.8746L70.1738 12.0397C74.5802 12.6175 76.9722 14.6811 76.9722 18.5195C76.9722 22.5229 74.0765 25.4533 68.4112 25.4533C65.0118 25.5359 61.7385 24.215 59.976 22.5641Z" fill="#212125"/>
<path fill-rule="evenodd" clip-rule="evenodd" d="M80.6653 3.1253C80.6653 2.91894 80.7911 2.79514 81.001 2.79514H95.2694C95.4792 2.79514 95.6051 2.91894 95.6051 3.1253V5.9731C95.6051 6.17946 95.4792 6.30329 95.2694 6.30329H84.8199C84.694 6.30329 84.61 6.38582 84.61 6.50965V11.9576C84.61 12.0814 84.694 12.164 84.8199 12.164H93.6326C93.8425 12.164 93.9683 12.2878 93.9683 12.4941V15.342C93.9683 15.5483 93.8425 15.6721 93.6326 15.6721H84.8199C84.694 15.6721 84.61 15.7547 84.61 15.8785V21.5328C84.61 21.6566 84.694 21.7392 84.8199 21.7392H95.2694C95.4792 21.7392 95.6051 21.863 95.6051 22.0693V24.9172C95.6051 25.1235 95.4792 25.2473 95.2694 25.2473H81.001C80.7911 25.2473 80.6653 25.1235 80.6653 24.9172V3.1253Z" fill="#212125"/>
<path fill-rule="evenodd" clip-rule="evenodd" d="M113.357 25.1648C113.105 25.1648 112.937 25.0822 112.853 24.8346L108.489 16.1261H104.586C104.46 16.1261 104.376 16.2087 104.376 16.3325V24.8758C104.376 25.0822 104.25 25.2061 104.04 25.2061H100.767C100.557 25.2061 100.431 25.0822 100.431 24.8758V3.1253C100.431 2.91894 100.557 2.79514 100.767 2.79514H109.58C113.776 2.79514 116.84 5.51911 116.84 9.48126C116.84 12.4116 115.119 14.6816 112.517 15.6308L117.301 24.752C117.427 24.9996 117.301 25.1648 117.05 25.1648H113.357ZM112.937 9.48126C112.937 7.54146 111.51 6.30329 109.454 6.30329H104.586C104.46 6.30329 104.376 6.38582 104.376 6.50965V12.4529C104.376 12.5767 104.46 12.6592 104.586 12.6592H109.454C111.51 12.618 112.937 11.3798 112.937 9.48126Z" fill="#212125"/>
<path fill-rule="evenodd" clip-rule="evenodd" d="M127.122 25.1648C126.912 25.1648 126.786 25.041 126.702 24.8346L119.484 3.1253C119.4 2.91894 119.568 2.79514 119.736 2.79514H122.967C123.219 2.79514 123.345 2.87767 123.387 3.1253L128.464 18.9739H128.549L133.459 3.1253C133.542 2.87767 133.668 2.79514 133.878 2.79514H137.11C137.319 2.79514 137.445 2.91894 137.361 3.1253L130.143 24.8346C130.059 25.041 129.933 25.1648 129.724 25.1648H127.122Z" fill="#212125"/>
<path fill-rule="evenodd" clip-rule="evenodd" d="M140.425 20.1303C139.963 18.727 139.837 17.489 139.837 13.9808C139.837 10.4726 139.963 9.19316 140.425 7.83116C141.6 4.28174 144.537 2.42447 148.482 2.42447C152.427 2.42447 155.365 4.28174 156.54 7.83116C157.001 9.23443 157.127 10.4726 157.127 13.9808C157.127 17.489 157.001 18.7684 156.54 20.1303C155.365 23.6798 152.427 25.5371 148.482 25.5371C144.537 25.5371 141.6 23.6798 140.425 20.1303ZM152.721 19.0985C152.973 18.2731 153.14 17.1175 153.14 13.9808C153.14 10.8028 153.015 9.68843 152.721 8.86298C152.091 7.04699 150.748 5.93264 148.482 5.93264C146.258 5.93264 144.915 7.04699 144.244 8.86298C143.992 9.68843 143.824 10.8028 143.824 13.9808C143.824 17.1587 143.95 18.2731 144.244 19.0985C144.873 20.9146 146.216 22.0288 148.482 22.0288C150.706 22.0288 152.049 20.9146 152.721 19.0985Z" fill="#212125"/>
<path fill-rule="evenodd" clip-rule="evenodd" d="M161.869 3.1253C161.869 2.91894 161.995 2.79514 162.206 2.79514H165.479C165.688 2.79514 165.814 2.91894 165.814 3.1253V24.8346C165.814 25.041 165.688 25.1648 165.479 25.1648H162.206C161.995 25.1648 161.869 25.041 161.869 24.8346V3.1253Z" fill="#212125"/>
<path fill-rule="evenodd" clip-rule="evenodd" d="M170.599 13.9808C170.599 10.4313 170.724 9.31696 171.186 7.91371C172.361 4.24046 175.256 2.42447 179.075 2.42447C182.727 2.42447 185.455 4.28174 186.797 7.21208C186.881 7.37717 186.797 7.54226 186.63 7.6248L183.776 8.9868C183.565 9.06934 183.398 8.9868 183.356 8.82171C182.601 7.25335 181.341 5.93264 179.117 5.93264C176.935 5.93264 175.676 7.08826 175.047 8.90424C174.752 9.81224 174.627 10.7202 174.627 14.022C174.627 17.3238 174.711 18.1905 175.047 19.1399C175.676 20.9558 176.935 22.1114 179.117 22.1114C181.341 22.1114 182.643 20.7908 183.356 19.2223C183.44 19.0573 183.607 18.9747 183.776 19.0573L186.63 20.4193C186.797 20.5018 186.881 20.667 186.797 20.832C185.497 23.8036 182.727 25.6195 179.075 25.6195C175.214 25.6195 172.361 23.7624 171.186 20.1303C170.724 18.6446 170.599 17.5302 170.599 13.9808Z" fill="#212125"/>
<path fill-rule="evenodd" clip-rule="evenodd" d="M190.658 3.1253C190.658 2.91894 190.783 2.79514 190.993 2.79514H205.261C205.472 2.79514 205.598 2.91894 205.598 3.1253V5.9731C205.598 6.17946 205.472 6.30329 205.261 6.30329H194.812C194.686 6.30329 194.602 6.38582 194.602 6.50965V11.9576C194.602 12.0814 194.686 12.164 194.812 12.164H203.625C203.835 12.164 203.961 12.2878 203.961 12.4941V15.342C203.961 15.5483 203.835 15.6721 203.625 15.6721H194.812C194.686 15.6721 194.602 15.7547 194.602 15.8785V21.5328C194.602 21.6566 194.686 21.7392 194.812 21.7392H205.261C205.472 21.7392 205.598 21.863 205.598 22.0693V24.9172C205.598 25.1235 205.472 25.2473 205.261 25.2473H190.993C190.783 25.2473 190.658 25.1235 190.658 24.9172V3.1253Z" fill="#212125"/>
</svg>
