<svg width="840" height="840" viewBox="0 0 840 840" fill="none" xmlns="http://www.w3.org/2000/svg">
<g clip-path="url(#clip0_2_588)">
<path d="M520.92 -130.02H-15.46V522.92H520.92V-130.02Z" fill="#F74874"/>
<path d="M840.89 -157.01H454.95V447.07H840.89V-157.01Z" fill="#F74874"/>
<path d="M337.28 503.83H-33.02V1124.17H337.28V503.83Z" fill="#F74874"/>
<path d="M862.03 392.88H578.91V769.6H862.03V392.88Z" fill="#F74874"/>
<path d="M789.97 703.08L878.05 736.19L822.48 809.4L736 769.22L789.94 697.26" fill="white"/>
<path d="M290 774.83C284.64 769.96 312 682.5 312 682.5L604.84 590.11L674.07 732.11L359.47 982.76L298.85 851.07L290 774.83Z" fill="white"/>
<path d="M443 714.97L534.27 624.51L610.9 269.48L257.89 264.06L244.55 508.12L292.92 623.37L379.07 716.52L443 714.97Z" fill="white"/>
<path d="M343.84 741.69L359.47 802.16L394.38 812.47L443 803.56V813.72L397.52 819.54L349.07 803.56L407.51 861.84L388.44 923.1L315.13 800.91L317.59 749.47L335 724.65L351.48 714.97L356.57 740.28L343.84 741.69Z" fill="#ADABD5"/>
<path d="M862.03 815.19L860.53 848.34L859.33 874.89L717.9 923L736 882.59L789.94 762.12L790.67 762.39L856.13 756.72L862.03 815.19Z" fill="#00B9E5"/>
<path d="M723.35 737.08L789.94 762.12L736 882.59L717.9 923L507.15 994.7L418.81 1101.57L400.12 1124.17L283.7 1109.83L364.65 971.21L518.15 798.4L538.54 819.54H568.82L723.35 737.08Z" fill="#7375AE"/>
<path d="M260.75 731.02L205.53 773.42L84.49 927.27L43.55 1102.27L315.13 1098.72L360.79 979.11L389.38 920.64L291.89 791.36L260.75 731.02Z" fill="#292D56"/>
<path d="M337.29 798.05L389.38 920.64L383.43 931.06L334.95 872.02L295.61 812.98L317.59 774.83L337.29 798.05Z" fill="#F7934E"/>
<path d="M283.7 682.5L247.98 706.37L254.43 732.13L237.95 757.91L264.85 831.34L334.95 872.02L317.59 826L337.29 798.05L331.83 769.82L304.05 730.11L311.49 694.55L283.7 682.5Z" fill="#C23653"/>
<path d="M351.48 703.08L331.83 769.82L283.7 782.93L286.45 744.44L283.7 682.5L316.62 652.17L351.48 703.08Z" fill="#75246E"/>
<path d="M691.73 662.89L697.25 653.43L671.26 585.54H661.12L616.96 608.25L526.53 716.14L511.44 751.58V803.56L604.35 732.13L627.04 744.44L672.43 703.08L691.73 662.89Z" fill="#FFDFAD"/>
<path d="M538.54 819.54L691.73 662.89L908.16 738.64L803.39 730.11L790.67 762.39L552.5 826L538.54 819.54Z" fill="#9DDAE6"/>
<path d="M402.92 861.84L429.5 773.42L518.15 730.11L524.01 802.15L442.34 865.98L402.92 861.84Z" fill="#00ADDA"/>
<path d="M526.53 812.9L359.47 982.76L402.92 861.84L526.32 782.93L526.53 812.9Z" fill="#3D8DAE"/>
<path d="M524.09 746.53L526.53 786.35L538.54 819.54L526.53 812.9L519.54 783.03L518.15 745.83V730.11L524.09 746.53Z" fill="#463190"/>
<path d="M498.89 690.83L526.53 716.14L524.09 746.53L518.15 745.83L486.01 714.39L498.89 690.83Z" fill="#100249"/>
<path d="M496.36 690.83L518.15 745.83L429.5 773.42L432.06 730.11L496.36 690.83Z" fill="#7375AE"/>
<path d="M604.1 619.28L661.12 585.54H591.09L583.33 608.25L604.1 619.28Z" fill="#7375AE"/>
<path d="M397.52 600.83L454.14 546.92L473.54 584.54C473.54 584.54 430.54 615.89 424.31 616.77C418.08 617.65 371.71 633.3 371.71 633.3L397.52 600.83Z" fill="#FFDFAD"/>
<path d="M354.08 430.17L350.8 452.72L319.67 472.66L328.08 447.02L354.08 430.17Z" fill="#FFDFAD"/>
<path d="M374.1 410.22H395.61V424.86L395.53 446.74L397.52 494.89L439.91 481.53L433.32 468.5L418.96 462.18L413.65 442.21V428.32L400.13 380.34L373.74 382.49L374.1 410.22Z" fill="#FFDFAD"/>
<path d="M443.98 448.71L489.48 494.74H441.3L431.39 462.18L413.65 442.21L404.97 419.36L429.78 425.6L443.98 448.71Z" fill="#FFDFAD"/>
<path d="M498.89 444.41L527.58 448.57L513.38 461.03L507.15 457.31L493.68 449.27L498.89 444.41Z" fill="#FFDFAD"/>
<path d="M482.14 440.44L537.94 423.6L510.34 411.6L496.5 397.67L493.5 412.37L483.37 413.86L483.53 425.03L447.85 435.79L452.25 445.38L481.43 448.57L482.14 440.44Z" fill="#FFDFAD"/>
<path d="M590.42 536.29L604.1 619.28L540.26 667.55L569.34 528.64L590.42 536.29Z" fill="#FFCC54"/>
<path d="M576.34 459.33C576.42 459.83 594.85 514.92 594.85 514.92L593.69 534.64L587.32 533.36L565.82 516.61L576.34 460.31" fill="#FABCAD"/>
<path d="M594.52 473.14L589.58 457.31L595.72 447.65L594.68 413.86L578.91 442.56L581.62 471.07L588.78 483.18L593.69 486.21L594.52 473.14Z" fill="#FFDFAD"/>
<path d="M590.65 478.57L596 459.33L600.88 476.92L598.76 515.36L596 536.39L588.43 538.65L567.78 534.16L574.09 516.61L590.48 530.76L592.94 517.61L583.55 488.04L584.33 472.92L590.65 478.57Z" fill="#F59FB6"/>
<path d="M610.77 438.68L600.63 477.9L595.72 460.31L599.11 420.23L596 405.52L612.8 398.92L613.99 412.96L610.77 438.68Z" fill="#E97E25"/>
<path d="M602.32 405.85L604.86 428.18L595.72 460.31L590.48 419.36L602.32 405.85Z" fill="#C23653"/>
<path d="M591.68 422.26L612.8 404.67L607.39 392.83L582.36 400.51L574.58 460.65L583.55 488.04L590.65 478.57L583.55 449.49L591.68 422.26Z" fill="#FFCC54"/>
<path d="M574.09 516.61L578.21 480.97L570.35 432.96L498.89 550.93V619.28L556.66 583.34L574.09 516.61Z" fill="#FFDFAD"/>
<path d="M474.3 363.12H539.32L540.92 269.36L435.06 216.01L370.63 208.56L366.62 383.67L424.49 372.8L474.3 363.12Z" fill="#FFDFAD"/>
<path d="M505.9 111L545.18 124.8C545.18 124.8 579.41 155.24 580.74 156.6C582.07 157.96 597.9 181.42 597.9 181.42V202L487.9 132.58L505.9 110.99" fill="#6657A5"/>
<path d="M458.07 107.49L505.9 110.95L523.6 124.75L537.39 148.81L494.58 165.36L372.51 132.89L404 108.83L458.07 107.49Z" fill="#A7B737"/>
<path d="M588 187.43L580.75 156.55L610.91 187.43L637.54 271.24L636.09 285.75L580.74 250L513 160.14C513 160.14 524 146.74 525.38 146.19C526.76 145.64 588 187.43 588 187.43Z" fill="#F59FB6"/>
<path d="M558.63 189.5L596.4 234.47L535.62 231.67L470.52 172.12L509.44 152.35L558.63 189.5Z" fill="#FFCC54"/>
<path d="M491.39 148.37L475.48 129.49L523.6 132.18V124.75L552.96 136.56L587.99 187.43L531.73 165.36L558.63 189.5L528.92 174.33L489.63 168.84L491.39 148.37Z" fill="#7793CB"/>
<path d="M393.85 165.36L427.93 167.44L515.06 244.69L489.57 256.92L459.14 247.55L380.58 191.63L370.63 176.54L393.85 165.36Z" fill="#7793CB"/>
<path d="M482.75 233.02L409.98 174.33L476.57 172.12L543.68 219.46L541.86 253.27L514.8 256.92L482.75 233.02Z" fill="#FFCC54"/>
<path d="M548.5 211.71L491.39 174.07L528.92 174.33L491.39 148.37L442.96 137.52L377.69 139.92L342.71 151.44L400.34 174.62L491.39 201.96L529.55 219.62L539.67 239.72L577.67 264.06L580.74 235.5L548.5 211.71Z" fill="#F7934E"/>
<path d="M370.33 146.19L444.86 137.94L391.06 125.99L375.55 121.5L321.53 129.49L307.06 146.19L341.99 162.19L370.33 146.19Z" fill="#BB3F97"/>
<path d="M286.12 146.19L261.02 156.55L241.32 187.04L262.56 194L290.72 174.33L286.12 146.19Z" fill="#BB3F97"/>
<path d="M282.52 154.9L241.32 187.04L219.45 216.32L230.23 248.71L285.17 229L321.53 182.05L282.52 154.9Z" fill="#75246E"/>
<path d="M318.04 137.94L391.06 125.99L419.94 113.1L458.07 107.49L410.21 102.43L332.14 123.41L286.12 146.19L283.18 153.47L309.32 156.55L318.04 137.94Z" fill="#573393"/>
<path d="M370.33 146.19L442.27 162.35L491.39 201.96L387.76 180.41L397.35 192.79L352.27 190.87L298.71 158.23L314.56 149.35L370.33 146.19Z" fill="#573393"/>
<path d="M301.25 193.19L272.72 175.98L283.18 153.47L318.04 137.94L370.33 146.19L312.02 157.28L330.72 162.67L340.14 174.33L315.82 199.74L301.25 193.19Z" fill="#05012B"/>
<path d="M513 245.46L484.66 210.95L529.55 219.62L566.17 250.73L546.83 210.95L595.9 233.02L629.57 277.9V315.35L568.53 326.73L510.65 249.94L513 245.46Z" fill="#C23653"/>
<path d="M373.74 212.05L426.94 260.27L480 278.03L438.03 240.4L503.06 278.03L535.62 283.68L505.79 247.57L430.14 209.95L456.25 242.09L397.35 192.79L340.14 174.33L345.35 209.11L373.74 212.05Z" fill="#8C2B90"/>
<path d="M633.27 271.19L613.65 221.06L610.9 187.43L639.9 247.71L646.46 310.05L636.08 340.7L628.68 332.2L625.54 285.44L633.27 271.19Z" fill="#8C2B90"/>
<path d="M591.68 408.61L581.52 442.21L578.21 480.97L572.77 477.16L570.73 451.15L561 428.86L564.32 346.76L591.68 368.19V408.61Z" fill="#8C2B90"/>
<path d="M579.83 295.3L539.02 261.57L549.35 283.68L513 245.46L482.75 233.02L531.7 283.68L560.09 369.7L568.85 359.72L583.05 376.03L594.38 392.81L610.9 397.67L603.4 315.35L579.83 295.3Z" fill="#313A92"/>
<path d="M579.83 295.3L596.71 335.48L594.3 369.7L603.54 391.18L583.05 376.03L591.68 408.61L603.54 400.13L610.77 412.62V438.68L621.22 405.6L623.63 372.8L611.17 337.49L630.05 363.12L636.08 340.7L633.27 271.19L607.96 241.86L595.9 233.02L614.79 288.47L617.6 305.34L593.89 259.14L570.73 238.65L603.4 306.15L579.83 295.3Z" fill="#05012B"/>
<path d="M230.34 486.93L226.92 527.1L244.77 555.62L243.21 481.53L230.34 486.93Z" fill="#485EAB"/>
<path d="M235.06 419.36L219.45 430.17L230.34 486.93L253.63 505.01L235.06 419.36Z" fill="#2C2A6C"/>
<path d="M218.1 217.38L202.09 245.63L197.89 269.36L215.39 266.95L232.06 227.36L218.1 217.38Z" fill="#8B374C"/>
<path d="M200.51 294.15L224.18 400.13L238.39 387.47L205.97 268.16L200.51 294.15Z" fill="#8B374C"/>
<path d="M215.38 230.28L218.1 217.38L243.93 197L270 192.79L239.45 230.28L301.79 205.46L258.58 273.76C258.58 273.76 210.89 303.07 211.38 302.33C211.87 301.59 208.38 272.52 208.38 272.52L219.31 231.29L215.31 230.29" fill="#8B374C"/>
<path d="M254.5 256.73L228.33 268.16L211.88 292.69L231.72 245.16L215.09 253.62L230.34 214.24L215.38 230.28L197.89 269.36L200.51 294.15L204.88 288.03L220.63 367.5L226.19 418.69L236.67 438.68L255.95 302.03L254.5 256.73Z" fill="#500037"/>
<path d="M248.5 290.67L254.5 256.73L301.25 193.19L340.14 174.33L373.74 212.05L375.55 360.94L305.08 362L298.85 344.09L257.89 356.16L248.5 290.67Z" fill="#FABCAD"/>
<path d="M438.34 516.61L464.61 550.93L445.68 552.67L396.88 551.36L392.75 537.52L438.34 516.61Z" fill="#FFCC54"/>
<path d="M490.27 706.37L442.83 743.19L429.5 773.42L360.79 719.8L534.27 608.25L524.33 657.6L492 703.08" fill="#C23653"/>
<path d="M552.5 576.65L574.09 516.61V546.63L540.26 667.55L490.27 706.37L517.04 638.11L508.16 622.57L552.5 576.65Z" fill="#F7934E"/>
<path d="M527.58 411.23L495.99 505.12L507.15 563.52L570.73 451.15L568.85 359.72L531.7 283.68L527.58 394.85L511.09 397.38L527.58 411.23Z" fill="#FABCAD"/>
<path d="M392.75 493.42L395.61 445.38L419.94 461.03L406.92 476.28L432.51 479.06L421.08 502.14L392.75 493.42Z" fill="#FABCAD"/>
<path d="M464.58 435.79L498.89 444.41L507.15 457.31L443.98 448.71L409.45 423.63L406.62 408.61L458.57 423.63L465.49 435.79" fill="#FABCAD"/>
<path d="M395.61 391.18V424.86L413.65 442.21L414.32 395.49L395.61 391.18Z" fill="#FABCAD"/>
<path d="M460.95 583.34L389.77 618.45L384.48 599.03L322.52 609.98L315.27 661.81L388.11 677.13L445.68 671.8L513.38 618.45V512.75L468.11 550.93L460.95 583.34Z" fill="#FABCAD"/>
<path d="M454.13 481.53L531.7 480.97V511.13L477.56 570.34L442.34 498.01L454.13 481.53Z" fill="#FABCAD"/>
<path d="M402.92 537.52L445.68 523.84L428.35 497.08L399.3 517.3L402.92 537.52Z" fill="#FABCAD"/>
<path d="M402.92 537.52V550.92L360.79 554.01L357.73 524.68L384.48 518.58L402.92 537.52Z" fill="#FABCAD"/>
<path d="M451.9 551.72L424.31 505.01L430.14 470.05L471.38 527.1L464.58 547.75L451.9 551.72Z" fill="#F7934E"/>
<path d="M451.9 551.72L468.74 519.42L477.56 546.92V570.34L459.42 584.54L451.9 557.94L438.34 557.95L451.9 551.72Z" fill="#E25D7D"/>
<path d="M355.22 523.18L385.58 541.39L402.92 537.52L426.33 503.77L386.6 508.12L360.17 514.82L355.22 523.18Z" fill="#F59FB6"/>
<path d="M364.65 551.27V519.42L328.08 534.03L330.54 555.62L364.65 551.27Z" fill="#F59FB6"/>
<path d="M328.08 464.52L330.58 451.15L357.73 434.7L355.78 419.52L306.88 427.69L273.34 391.18L244.77 389.5L246.06 470.05L254.5 508.99L284.74 514.58L287.63 472.66L273.05 454.52L314.02 445.19L318.53 455.98L280.85 476.68L278.44 511.59L305.62 519.23L328.08 464.52Z" fill="#FABCAD"/>
<path d="M254.5 494.74L255.95 397.67L261.77 366.5L248.5 290.67L230.34 464.52L246.06 512.75L254.5 494.74Z" fill="#E97E25"/>
<path d="M306.39 566H288.09L274.98 535.49L320.68 490.42L328.08 522.46L316.58 564.58L306.39 566Z" fill="#F7934E"/>
<path d="M254.5 494.74L230.34 464.52L237.95 552.67L282.46 630.98L301.94 628.34L266.14 512.75L255.95 494.16" fill="#C23653"/>
<path d="M284.31 535.49L307.5 512.75L305.08 501.13L254.5 494.74L270.25 548.96L284.74 559.45L284.31 535.49Z" fill="#F59FB6"/>
<path d="M326.31 624.51L327.83 655.7L440.2 663.3L402.92 696.14L339.25 703.08L283.27 606.76L270.25 548.96L284.31 535.49L305.08 608.34L306.39 566L313.01 559.45L324.3 562.14L340.97 599.03L326.31 624.51Z" fill="#F7934E"/>
<path d="M421.32 578.61L389.77 618.45L366.92 605.33L359.47 590.46L405.96 588.83L414.85 583.34L421.32 578.61Z" fill="#F7934E"/>
<path d="M324.3 579.61L326.31 624.51L389.77 618.45L379.07 593.91L324.71 581.2" fill="#A7717A"/>
<path d="M432.06 670.14L510.14 604.49L552.5 576.65L517.04 638.11L410.21 710.83L397.52 703.03L432.06 670.14Z" fill="#8B374C"/>
<path d="M300 649.84C300 650.99 342.29 712.48 342.29 712.48L343.81 741.69L367.26 770.52L402.89 776.11L400.7 759.37L313 654.83L300 649.84Z" fill="#8B374C"/>
<path d="M334.95 677.13L362.74 686.45H397.32L432.06 670.14L410.21 710.83L379.07 716.52L429.5 773.42L401.36 776.26L315.13 659.61L334.95 677.13Z" fill="#500037"/>
<path d="M237.95 552.67L281.79 622.97L283.27 606.76L334.95 677.13L292.48 652.08L246.14 592.74L237.95 552.67Z" fill="#75246E"/>
<path d="M315.13 488.63L313 554.94L319.75 557.94C319.75 557.94 337.36 556.55 336.61 556.7C335.43 556.93 331.15 541.1 331.15 541.1L356.67 527.33L331.67 508.98L324 484.28L315.13 488.63Z" fill="#E97E25"/>
<path d="M320.97 489.51L307.5 512.75L305.08 501.13L328.08 464.52V480.82L320.97 489.51Z" fill="#75246E"/>
<path d="M451.9 551.71H445.68V557.93H451.9V551.71Z" fill="#75246E"/>
<path d="M317.52 554.94H313.01V559.45H317.52V554.94Z" fill="#75246E"/>
<path d="M375.95 559.4L394.6 559.93V568.16L399.49 554.94L408.56 556.26L406.08 575.32L408.46 573.17L409.58 557.95L421.13 555.62L420.68 559.4L417.66 571.68L419.89 570.34L422.91 559.4H424.79L423.98 565.13L419.94 566L419.27 570.34L429.23 567.07L432.06 554.94L421.32 548.96L373.78 554.01L375.95 559.4Z" fill="#9DDAE6"/>
<path d="M365 578L357.74 554C357.74 554 354.21 554.4 353.97 555.61C353.83 556.35 355.97 565.67 357.89 570.95C359.16 574.39 360.52 574.68 360.52 574.68L365 578Z" fill="#9DDAE6"/>
<path d="M355.4 569.24L352.69 561.24L351.1 562.24L352.22 565.85L356.74 565.47L357.74 570.37C357.74 570.37 345.99 570.46 346.16 570.24C346.33 570.02 338.94 566.63 338.94 566.63L337.75 558.63L345.48 556.72L353.73 556.84L356.15 560.65L357.15 569.65L355.4 569.24Z" fill="#9DDAE6"/>
<path d="M345.69 559.4C345.97 559.13 354.34 559.4 354.34 559.4L357.34 571.4L359 571L357.7 568.85L356.7 561.63L354.92 554.57L357 559.4H373.54L374.19 572.4C374.19 572.4 374.81 574.84 375.1 574.68C375.795 574.466 376.503 574.296 377.22 574.17L375.96 560.69L375.02 554.94L352.4 551.68L343.89 553.6L345.74 559.4" fill="#ADABD5"/>
<path d="M346.42 561.44L347.31 570.26H344.55L341.5 559.4L338.87 560.4L340.36 566C340.36 566 345.04 564.64 344.97 564.82C344.9 565 346.42 573.16 346.42 573.16L337.81 570.89L334.62 555.61L340.43 553.27L344.05 554.79L346.42 561.43" fill="#ADABD5"/>
<path d="M335 559.4L341.54 557.57L346.47 561.44V557.07L353.4 556.24L356.7 561.44L357.27 557.57L374.08 556.71L375.96 560.71L376.79 556.26L393.13 555.64L394.65 559.95L399.65 551.29L408.1 550.95L408.96 559.42L418.38 548.65L421.38 554.02L420.73 559.42L424.84 556.42L428.52 556.85L427.87 567.13L434.99 564.64L435.66 555L428.85 548.69C428.85 548.69 387.39 550.46 387.61 551.33C387.83 552.2 334.61 553.33 334.61 553.33L333.42 556.41L335 559.4Z" fill="#E25D7D"/>
<path d="M437.22 566.99L414.85 583.34L413.98 578.17L395.35 583.34V589.18L372.48 592.74L346.42 588.16L342.32 574.17L385.69 576.65L416.77 571.9L434.09 563.23L437.22 566.99Z" fill="#FFCC54"/>
<path d="M322.52 572.78L315.13 559.4L333.73 568.58L344.94 574.17L348.63 583.34L375.91 589.97L414.85 583.34L402.61 590.9L379.07 593.91L337.48 589.95L326.31 578.64L323.31 572.78" fill="#FFCC54"/>
<path d="M322.52 572.78L339.72 588.66L375.91 589.97L379.07 593.91L339.14 592.45L324.71 581.2L322.52 572.78Z" fill="#EF5D24"/>
<path d="M415.54 574.17L380.61 581.2L337.48 579.61L336.36 568.16L358.39 572.35L375.91 574.17L379.06 575.82L414.85 572.94L415.54 574.17Z" fill="#EF5D24"/>
<path d="M434.09 563.23C434.09 563.23 409.09 572.35 408.72 572.35C408.35 572.35 375.91 574.17 375.91 574.17L377.65 575.89L415.54 574.17L437.22 567L448.07 556.59L443.93 553.29L434.93 557.96L434.41 561.28" fill="#C23653"/>
<path d="M315.13 559.4L319.92 565.78L337.48 579.61V568.26L324.2 556.71L316.3 557.95L315.13 559.4Z" fill="#C23653"/>
<path d="M350.8 548.63L385.15 549.54L416.77 546.92L416.1 550.81L380.91 554.94L352.94 552.08L350.8 548.63Z" fill="#C23653"/>
<path d="M336.45 554.61L376.35 555.62L382.13 554.61L350.8 548.63L334.95 550.29L315.13 557.95V559.4H317.69H327.8L336.45 554.61Z" fill="#882B68"/>
<path d="M421.32 554L401.99 553.66L375.91 555.62L388.04 552.67L406.74 549.9L416.77 546.92L435.6 548.55L448.56 553.41L438.31 554.61L421.32 554Z" fill="#882B68"/>
<path d="M316.94 557.95L336.45 554.61L337.43 566.58L344.6 567.87L346.66 566.79L349.91 568.66H357.69L364.98 572.4H374.13L375.91 574.17L352.28 573.19L322.94 565.9L316.94 559.6V557.95Z" fill="#05012B"/>
<path d="M422.52 552.67L448.56 553.41L448.07 556.58L434.09 563.23L429.63 559.86L429.13 555.1L421.32 554L422.52 552.67Z" fill="#05012B"/>
<path d="M374.1 373.83L375.55 360.94L344 359.72L341.2 380.1L362.79 388.89L374.1 373.83Z" fill="#FFCC54"/>
<path d="M406.62 406.58L395.61 391.18H379.66L364.62 487.55L392.75 493.42L373.74 511.59L351.48 494.74L364.93 396.72L374.1 373.83L407.3 365.76L430.14 378.78L406.62 406.58Z" fill="#FFCC54"/>
<path d="M351.48 377.93L374.1 373.83L369.37 397.67L356.73 393.69L351.48 377.93Z" fill="#E25D7D"/>
<path d="M406.62 406.58V416.85L421.83 420.81L421.08 399.05L406.62 406.58Z" fill="#FFDFAD"/>
<path d="M430.14 470.05L467.04 534.27L471.38 552.67L476.22 547.07L473.98 522.46L454.13 497.08L440.34 472.66L432.04 468.5L430.14 470.05Z" fill="#882B68"/>
<path d="M430.14 470.05L419.94 461.03L431.39 462.18L454.13 481.53V497.08L435.7 472.66L430.14 470.05Z" fill="#E25D7D"/>
<path d="M375.51 506.99L392.75 493.42L414.85 494.16L430.14 470.05V494.16L426.33 503.77L373.74 519.42L370.11 513.47L375.51 506.99Z" fill="#E97E25"/>
<path d="M366.62 411.02L366.45 411.74L360.79 435.79L344.94 451.15L355.74 414.86V409.5L362.6 406.12" fill="#A7717A"/>
<path d="M342.82 487.55L334.95 488.23L336.98 472.66L325.27 478.78L322.52 492.69L324.92 501.2L346.79 494.16L346.27 486.65L342.82 487.55Z" fill="#FFCC54"/>
<path d="M325.27 481.53L347.45 475.89L349.28 458.58L328.03 468.5L325.27 481.53Z" fill="#FFCC54"/>
<path d="M351.8 460.76L351.1 461.07L330.11 470.15L323.98 494.16L321.88 486.65L328.08 464.52L344.94 451.15L352.07 456.63" fill="#F7934E"/>
<path d="M342.82 487.55L344.94 451.15L360.79 435.79L354.23 501.2L342.82 487.55Z" fill="#F7934E"/>
<path d="M342.82 500.01V505.63L335.41 508.99L325.93 504.5L323.98 498.14L344.94 493.42L342.82 500.01Z" fill="#A98E29"/>
<path d="M376.35 516.61L375.43 506.08L342.82 487.55V500.01L347.5 501.49L347.6 510.19L364.38 522.46L372.02 520.86L376.35 516.61Z" fill="#A98E29"/>
<path d="M369.2 519.42L385.58 511.13L390.8 513.16L388.77 516.61L372.77 523.94L356.68 527.34L357.03 518.29L369.2 519.42Z" fill="#8B374C"/>
<path d="M385.58 511.13L388.77 516.61L409 513.87C409 513.87 426.77 503.66 426.32 503.77C425.87 503.88 408.12 505.12 408.12 505.12L402.9 508.12H393.62L385.57 511.12" fill="#75246E"/>
<path d="M385.58 511.13C385.58 511.13 392.92 505.13 393.19 505.13H408.13L409.45 508.75L397.52 510.61L385.58 511.13Z" fill="#05012B"/>
<path d="M334.95 507.17L325.74 500.46L321.88 486.65L320.68 490.42L326.76 512.42L337.8 525.13L356.68 527.34L369.2 519.42L345.35 510.95L334.95 507.17Z" fill="#500037"/>
<path d="M334.95 507.17L344.62 503.77L360.17 514.82L369.2 519.42H358.15L336.7 514.08L334.95 507.17Z" fill="#05012B"/>
<path d="M269.92 369.7L282.46 362L315.58 369.7L276.95 391.18L269.92 369.7Z" fill="#FFCC54"/>
<path d="M257.89 376.03L255.95 397.67L268.39 405.24L266.71 369.7L257.89 376.03Z" fill="#E25D7D"/>
<path d="M265.23 388L262.39 371.74L271.39 367.5L278.04 385.4L301.94 372.8L308.89 365.27L328.08 371.9L337.42 388L278.04 402.35L265.23 388Z" fill="#F7934E"/>
<path d="M278 398.57L265.23 388L268.39 405.24C268.39 405.24 281.24 410.81 281.39 410.72C281.54 410.63 284.71 401.72 284.71 401.72L278 398.57Z" fill="#882B68"/>
<path d="M330.81 383.67L310.99 367.5L351.48 377.93L369.37 397.67L366.62 411.02L355.74 414.86L330.81 393.78V383.67Z" fill="#C23653"/>
<path d="M301.94 357.06L285.75 356.16L261.77 366.5L257.89 376.03L279.92 370.38L301.94 372.8L305.62 368.74L301.94 357.06Z" fill="#C23653"/>
<path d="M301.94 357.06L344 359.72C344 359.72 352.29 377.93 351.48 377.93C350.67 377.93 301.94 372.8 301.94 372.8V357.06Z" fill="#75246E"/>
<path d="M335.48 428.32H351.73L355.74 414.86L341.2 410.72L332.26 417.54L335.48 428.32Z" fill="#FABCAD"/>
<path d="M305.92 385.07H330.58V400.55L301.94 399.96L305.92 385.07Z" fill="#FFCC54"/>
<path d="M306.88 397.38V385.4H298.85L284.74 397.38L285.58 409.95L306.88 397.38Z" fill="#A98E29"/>
<path d="M280.85 411.02L278.44 405.24L285.38 395.49L286.49 408.7L280.85 411.02Z" fill="#7375AE"/>
<path d="M314.02 430.17L296.75 431.83L284.5 422.23L280.85 411.02L287.5 407.54L308.89 419.68L314.02 430.17Z" fill="#C23653"/>
<path d="M335.48 420.27V428.32L314.02 430.17L291.35 422.3L286.49 409.06L307.13 407.2L308.09 415.27L335.48 420.27Z" fill="#F7934E"/>
<path d="M296.75 411.2L301.94 418.23L335.48 420.27L342.58 414.86L322.25 411.2H296.75Z" fill="#FFCC54"/>
<path d="M327.17 397.38V385.4L355.74 409.5V414.86H348.19L326.65 405.6L327.17 397.38Z" fill="#6673AC"/>
<path d="M298.85 386.58L278.04 405.6V398.57L298.85 383.67L301.94 384.9L299.39 386.58" fill="#463190"/>
<path d="M330.81 383.67L355.74 404.37V409.95L328.08 386.58H298.85V383.67H330.81Z" fill="#500037"/>
<path d="M302.05 412.62L308.89 413.45L307.6 405.6L301.31 404.37L300.32 406.12L302.05 412.62Z" fill="#AEE0EA"/>
<path d="M296.75 411.2L302.05 412.62V407.82L307.13 406.12L305.69 398.57L297.12 404.55L296.75 411.2Z" fill="#00ADDA"/>
<path d="M292.92 409.06L296.75 411.2L298.85 402.7L295.21 404.74L292.92 409.06Z" fill="#8C2B90"/>
<path d="M342.58 414.86H348.19L346.57 412.25L341.69 408.13L340.14 407.54L342.58 414.86Z" fill="#8C2B90"/>
<path d="M336.44 414.86H342.58C342.58 414.86 341.51 407.86 341.33 407.86C341.15 407.86 332.26 402.31 332.26 402.31V408.88L336.44 414.82" fill="#AEE0EA"/>
<path d="M328.08 414.86H336.44V410.1L333.6 408.7L329.3 409.39L328.08 414.86Z" fill="white"/>
<path d="M286.49 408.07L306.88 397.38H327.17L347.65 410.7L348.19 414.86L333.6 403.9V408.7L328.08 414.86L308.89 413.45L304.52 407.98V400.37L292.92 409.06H286.49V408.07Z" fill="#05012B"/>
<path d="M497.8 406.48L510.34 411.6L527.58 411.23V394.85L504.7 380.18L474.28 377.04L464.4 381.72L471.06 389.05L497.8 406.48Z" fill="#FABCAD"/>
<path d="M426.94 363.12L407.3 365.76L404.47 382.49H413.65L426.94 377.95V363.12Z" fill="#5956A5"/>
<path d="M417.62 406.58H406.62L413.65 382.49L470.52 369.7L473.39 382.49V389.5L442.42 390.66L421.08 408.07L417.62 406.58Z" fill="#BB3F97"/>
<path d="M474.3 363.12L505.79 380.95L490.27 385.81L473.39 382.49L466.99 376.42L474.3 363.12Z" fill="#C23653"/>
<path d="M426.94 363.12H474.3L473.39 382.49H413.65L426.94 363.12Z" fill="#75246E"/>
<path d="M463.52 400.51L464.58 389.5H448.55L439.91 403.94L463.52 400.51Z" fill="#FFCC54"/>
<path d="M490.27 415.54L508.16 419.36L498.89 407.25L490.27 399.74L487.65 410.22L484.83 412L490.27 415.54Z" fill="#F7934E"/>
<path d="M443.19 400.51L453.3 389.33L439.91 387.67L428.55 396.7L417.62 406.58V413.67L421.08 414.46L443.76 403.94L443.56 401.07" fill="#F7934E"/>
<path d="M464.59 435.79L484.91 432.41L492 421.48L490.27 415.54L472.73 411.46C472.73 411.46 450.04 424.31 450.73 423.63C451.42 422.95 464.54 435.79 464.54 435.79" fill="#F7934E"/>
<path d="M457.76 424.86L464.58 435.79L440.86 432.29L421.83 420.81L421.08 414.46L438.61 414.28L458.57 421.26L457.76 424.86Z" fill="#E25D7D"/>
<path d="M432.51 415L433.65 417.05C433.65 417.05 457.42 424.93 457.76 424.82C458.1 424.71 479.5 422.34 479.5 422.34L480 416.34L442.83 411.41L432.51 415Z" fill="#FFCC54"/>
<path d="M463.52 400.51L487.65 410.22L490.27 415.54L485.51 415.63L464.58 407.49L461.56 402.3L463.52 400.51Z" fill="#C23653"/>
<path d="M421.08 414.46V412.37L443.19 400.51H463.52L464.58 403.94L442.42 407.49L421.08 414.46Z" fill="#882B68"/>
<path d="M426.94 402L443.95 392.09L472.06 392.52L498.89 407.25L494.98 401.43L472.1 387.67H439.91L428.55 396.7L426.94 402Z" fill="#05012B"/>
<path d="M480 417.09L468.6 418.09L471.89 408.04L482.14 411.99L480 417.09Z" fill="#9DDAE6"/>
<path d="M485.51 415.63L480 417.09L480.45 411.46L485.51 415.63Z" fill="#5956A5"/>
<path d="M432.51 415.04L424.49 414.52L425.9 412.57L435.06 408.97L432.51 415.04Z" fill="#5956A5"/>
<path d="M438.03 415.54L432.51 415.04L433.29 409.9L444.47 404.9L447.32 407.88L438.03 415.54Z" fill="#00ADDA"/>
<path d="M445.65 416.39L438.03 415.54L438.4 411.18L446.81 409.73L445.65 416.39Z" fill="white"/>
<path d="M421.08 414.46L443.76 403.94H464.58L483.13 410.7L485.51 415.63L472.85 409.26L472.59 414.18L468.6 418.09L445.65 416.39L443.87 412.23L444.21 405.77L424.49 414.52L421.08 414.46Z" fill="#05012B"/>
<path d="M447.32 407.88L455.17 408.36L455.96 412.58L462.98 413.84L463.67 410.47L470.16 411.36L468.52 415.43L465.35 416.85L449.1 415.22L446.99 412.74L447.32 407.88Z" fill="#265EAC"/>
<path d="M465.49 407.25H461.56V411.18H465.49V407.25Z" fill="white"/>
<path d="M307.27 403.9L315.13 404.38L315.92 408.6L322.94 409.86L323.62 406.49L330.11 407.38L328.48 411.45L325.31 412.87L309.06 411.24L306.95 408.76L307.27 403.9Z" fill="#265EAC"/>
<path d="M325.44 403.27H321.51V407.2H325.44V403.27Z" fill="white"/>
<path d="M458.07 107.49L505.9 110.95L523.6 124.75L418.72 113.65L458.07 107.49Z" fill="#A4DDED"/>
</g>
<defs>
<clipPath id="clip0_2_588">
<rect width="840" height="840" fill="white"/>
</clipPath>
</defs>
</svg>
