<svg width="428" height="520" viewBox="0 0 428 520" fill="none" xmlns="http://www.w3.org/2000/svg">
<path d="M366.575 312.104L412.342 329.309L383.468 367.349L338.532 346.471L366.56 309.08" fill="white"/>
<path d="M106.785 349.386C104 346.856 118.217 301.411 118.217 301.411L270.38 253.404L306.352 327.189L142.883 457.429L111.384 389.002L106.785 349.386Z" fill="white"/>
<path d="M186.286 318.282L233.711 271.279L273.528 86.801L90.1006 83.9847L83.1689 210.801L108.303 270.686L153.067 319.088L186.286 318.282Z" fill="white"/>
<path d="M134.761 332.167L142.883 363.587L161.022 368.945L186.286 364.315V369.594L162.654 372.618L137.479 364.315L167.845 394.598L157.936 426.429L119.843 362.938L121.121 336.209L130.168 323.312L138.731 318.283L141.376 331.434L134.761 332.167Z" fill="#ADABD5"/>
<path d="M331.959 329.771L366.56 342.782L338.532 405.38L329.127 426.377L219.694 463.806L155.868 519.122L131.206 481.5L145.574 451.428L225.335 361.634L235.929 372.618H251.663L331.959 329.771Z" fill="#7375AE" fill-opacity="0.8"/>
<path d="M91.5866 326.622L62.8937 348.654L0 428.596L78.2172 442.863L119.843 490.407L143.569 455.533L158.424 425.151L107.767 357.976L91.5866 326.622Z" fill="#292D56" fill-opacity="0.8"/>
<path d="M131.358 361.452L158.424 425.151L155.332 430.565L130.142 399.887L109.7 369.21L121.121 349.386L131.358 361.452Z" fill="#F7934E"/>
<path d="M103.511 301.411L84.951 313.814L88.3024 327.199L79.7393 340.594L93.7168 378.749L130.142 399.887L121.121 375.975L131.357 361.452L128.52 346.783L114.086 326.149L117.951 307.672L103.511 301.411Z" fill="#C23653"/>
<path d="M138.731 312.104L128.521 346.783L103.512 353.595L104.941 333.595L103.512 301.411L120.617 285.651L138.731 312.104Z" fill="#75246E"/>
<path d="M315.529 291.221L318.397 286.306L304.892 251.029H299.623L276.677 262.83L229.689 318.89L221.848 337.305V364.315L270.125 327.199L281.915 333.595L305.5 312.104L315.529 291.221Z" fill="#FFDFAD"/>
<path d="M235.929 372.618L315.529 291.221L427.988 330.582L373.548 326.149L366.939 342.923L243.183 375.975L235.929 372.618Z" fill="#9DDAE6" fill-opacity="0.8"/>
<path d="M165.46 394.598L179.271 348.654L225.334 326.149L228.379 363.582L185.943 396.749L165.46 394.598Z" fill="#00ADDA"/>
<path d="M229.689 369.168L142.883 457.429L165.46 394.598L229.58 353.595L229.689 369.168Z" fill="#3D8DAE"/>
<path d="M228.421 334.682L229.689 355.372L235.929 372.618L229.689 369.168L226.057 353.647L225.334 334.318V326.149L228.421 334.682Z" fill="#463190"/>
<path d="M215.327 305.739L229.689 318.89L228.421 334.681L225.335 334.318L208.634 317.981L215.327 305.739Z" fill="#100249"/>
<path d="M214.012 305.739L225.335 334.318L179.271 348.654L180.601 326.149L214.012 305.739Z" fill="#7375AE"/>
<path d="M269.995 268.561L299.623 251.029H263.235L259.203 262.83L269.995 268.561Z" fill="#7375AE"/>
<path d="M162.654 258.974L192.074 230.962L202.155 250.51C202.155 250.51 179.811 266.799 176.574 267.257C173.337 267.714 149.243 275.846 149.243 275.846L162.654 258.974Z" fill="#FFDFAD"/>
<path d="M140.082 170.297L138.378 182.015L122.202 192.376L126.572 179.053L140.082 170.297Z" fill="#FFDFAD"/>
<path d="M150.485 159.931H161.661V167.538L161.62 178.907L162.654 203.927L184.68 196.985L181.256 190.214L173.794 186.93L171.035 176.553V169.336L164.01 144.405L150.298 145.522L150.485 159.931Z" fill="#FFDFAD"/>
<path d="M186.795 179.931L210.437 203.849H185.402L180.253 186.93L171.035 176.553L166.525 164.68L179.416 167.923L186.795 179.931Z" fill="#FFDFAD"/>
<path d="M215.327 177.697L230.234 179.858L222.856 186.333L219.619 184.4L212.62 180.222L215.327 177.697Z" fill="#FFDFAD"/>
<path d="M206.623 175.634L235.618 166.883L221.276 160.648L214.085 153.41L212.526 161.048L207.262 161.822L207.346 167.627L188.806 173.218L191.092 178.201L206.254 179.858L206.623 175.634Z" fill="#FFDFAD"/>
<path d="M262.887 225.438L269.995 268.561L236.823 293.643L251.933 221.463L262.887 225.438Z" fill="#FFCC54"/>
<path d="M255.571 185.449C255.612 185.709 265.189 214.334 265.189 214.334L264.586 224.581L261.276 223.916L250.104 215.212L255.571 185.958" fill="#FABCAD"/>
<path d="M265.017 192.625L262.45 184.4L265.641 179.38L265.1 161.822L256.906 176.735L258.314 191.549L262.035 197.842L264.586 199.416L265.017 192.625Z" fill="#FFDFAD"/>
<path d="M263.006 195.446L265.786 185.449L268.322 194.589L267.22 214.563L265.786 225.49L261.853 226.665L251.123 224.332L254.402 215.212L262.918 222.565L264.196 215.732L259.317 200.367L259.722 192.511L263.006 195.446Z" fill="#F59FB6"/>
<path d="M273.461 174.719L268.192 195.098L265.641 185.958L267.402 165.132L265.786 157.489L274.516 154.059L275.134 161.355L273.461 174.719Z" fill="#E97E25"/>
<path d="M269.07 157.66L270.39 169.263L265.641 185.958L262.918 164.68L269.07 157.66Z" fill="#C23653"/>
<path d="M263.542 166.187L274.516 157.047L271.705 150.895L258.699 154.886L254.656 186.135L259.317 200.367L263.006 195.446L259.317 180.336L263.542 166.187Z" fill="#FFCC54"/>
<path d="M254.402 215.212L256.542 196.694L252.458 171.747L215.327 233.046V268.561L245.345 249.886L254.402 215.212Z" fill="#FFDFAD"/>
<path d="M202.55 135.457H236.335L237.166 86.7386L182.16 59.0174L148.682 55.1463L146.598 146.135L176.668 140.487L202.55 135.457Z" fill="#FFDFAD"/>
<path d="M218.969 4.45307L239.38 11.6237C239.38 11.6237 257.166 27.4407 257.857 28.1473C258.548 28.854 266.773 41.0441 266.773 41.0441V51.7377L209.616 15.6663L218.969 4.44788" fill="#6657A5"/>
<path d="M194.116 2.62924L218.969 4.42709L228.166 11.5977L235.332 24.0996L213.087 32.6991L149.658 15.8274L166.021 3.32552L194.116 2.62924Z" fill="#A7B737"/>
<path d="M261.629 44.1669L257.862 28.1213L273.534 44.1669L287.371 87.7155L286.617 95.2551L257.857 76.679L222.658 29.9868C222.658 29.9868 228.374 23.024 229.091 22.7382C229.808 22.4524 261.629 44.1669 261.629 44.1669Z" fill="#F59FB6"/>
<path d="M246.368 45.2425L265.994 68.6094L234.412 67.1545L200.585 36.2117L220.809 25.939L246.368 45.2425Z" fill="#FFCC54"/>
<path d="M211.43 23.8709L203.163 14.0606L228.166 15.4584V11.5977L243.422 17.7343L261.624 44.1669L232.391 32.6991L246.368 45.2425L230.931 37.36L210.515 34.5073L211.43 23.8709Z" fill="#7793CB"/>
<path d="M160.747 32.6991L178.455 33.7799L223.729 73.9199L210.484 80.2747L194.672 75.4059L153.852 46.3493L148.681 38.5084L160.747 32.6991Z" fill="#7793CB"/>
<path d="M206.94 67.856L169.128 37.36L203.729 36.2117L238.6 60.8101L237.654 78.3781L223.594 80.2747L206.94 67.856Z" fill="#FFCC54"/>
<path d="M241.105 56.7831L211.43 37.2249L230.931 37.36L211.43 23.8709L186.265 18.2332L152.35 19.4802L134.174 25.4661L164.119 37.5107L211.43 51.7169L231.258 60.8932L236.517 71.3374L256.262 83.9847L257.857 69.1446L241.105 56.7831Z" fill="#F7934E"/>
<path d="M148.526 22.7381L187.252 18.4513L159.297 12.242L151.238 9.90894L123.169 14.0606L115.65 22.7381L133.8 31.0519L148.526 22.7381Z" fill="#BB3F97"/>
<path d="M104.769 22.7382L91.727 28.1213L81.4907 43.9643L92.5273 47.5808L107.16 37.36L104.769 22.7382Z" fill="#BB3F97" fill-opacity="0.8"/>
<path d="M102.899 27.264L81.4909 43.9643L70.127 59.1785L75.7284 76.0087L104.276 65.7672L123.169 41.3714L102.899 27.264Z" fill="#75246E"/>
<path d="M121.355 18.4514L159.297 12.242L174.303 5.54426L194.116 2.62924L169.248 0L128.682 10.9014L104.769 22.7382L103.241 26.521L116.824 28.1213L121.355 18.4514Z" fill="#573393"/>
<path d="M148.526 22.7382L185.906 31.1351L211.43 51.7169L157.582 40.5192L162.565 46.952L139.141 45.9544L111.311 28.9943L119.547 24.3801L148.526 22.7382Z" fill="#573393"/>
<path d="M112.631 47.1599L97.8064 38.2174L103.242 26.5209L121.355 18.4514L148.526 22.7381L118.227 28.5006L127.944 31.3013L132.839 37.36L120.202 50.5633L112.631 47.1599Z" fill="#05012B"/>
<path d="M222.658 74.3199L207.933 56.3882L231.258 60.8932L250.286 77.0583L240.237 56.3882L265.734 67.856L283.229 91.1761V110.636L251.512 116.549L221.437 76.6478L222.658 74.3199Z" fill="#C23653"/>
<path d="M150.298 56.9597L177.941 82.0154L205.511 91.2437L183.703 71.6907L217.494 91.2437L234.412 94.1795L218.912 75.4163L179.604 55.8686L193.171 72.5689L162.566 46.952L132.839 37.36L135.546 55.4321L150.298 56.9597Z" fill="#8C2B90"/>
<path d="M285.152 87.6896L274.957 61.6415L273.528 44.1669L288.597 75.4891L292.006 107.882L286.612 123.808L282.767 119.391L281.135 95.094L285.152 87.6896Z" fill="#8C2B90"/>
<path d="M263.542 159.094L258.262 176.553L256.542 196.694L253.716 194.714L252.656 181.199L247.6 169.617L249.325 126.957L263.542 138.092V159.094Z" fill="#8C2B90"/>
<path d="M257.384 100.217L236.179 82.6909L241.546 94.1795L222.658 74.32L206.94 67.856L232.375 94.1795L247.127 138.876L251.679 133.691L259.057 142.166L264.944 150.885L273.528 153.41L269.631 110.636L257.384 100.217Z" fill="#313A92"/>
<path d="M257.384 100.217L266.155 121.095L264.903 138.876L269.704 150.038L259.057 142.166L263.542 159.095L269.704 154.688L273.461 161.178V174.719L278.891 157.53L280.143 140.487L273.669 122.14L283.479 135.457L286.612 123.808L285.152 87.6896L272.001 72.4494L265.734 67.856L275.55 96.6685L277.01 105.434L264.69 81.4283L252.656 70.7814L269.631 105.855L257.384 100.217Z" fill="#05012B"/>
<path d="M75.7854 199.79L74.0083 220.663L83.2834 235.483L82.4728 196.985L75.7854 199.79Z" fill="#485EAB"/>
<path d="M78.2381 164.68L70.127 170.297L75.7855 199.79L87.8873 209.185L78.2381 164.68Z" fill="#2C2A6C"/>
<path d="M69.4252 59.7293L61.1062 74.4083L58.9238 86.7386L68.017 85.4864L76.6789 64.915L69.4252 59.7293Z" fill="#8B374C"/>
<path d="M60.2852 99.6198L72.5843 154.688L79.968 148.11L63.1222 86.1151L60.2852 99.6198Z" fill="#8B374C"/>
<path d="M68.0118 66.4323L69.4251 59.7293L82.8467 49.1396L96.3929 46.9521L80.5188 66.4323L112.911 53.5355L90.459 89.025C90.459 89.025 65.6787 104.255 65.9333 103.87C66.188 103.486 64.3745 88.3806 64.3745 88.3806L70.0539 66.9571L67.9754 66.4375" fill="#8B374C"/>
<path d="M88.339 80.176L74.7408 86.1151L66.1932 98.8612L76.5023 74.1641L67.8611 78.56L75.7852 58.0977L68.0118 66.4323L58.9238 86.7387L60.2852 99.6198L62.5559 96.4398L70.7398 137.733L73.6288 164.332L79.0743 174.719L89.0924 103.714L88.339 80.176Z" fill="#500037"/>
<path d="M85.2214 97.8116L88.3391 80.176L112.631 47.1599L132.839 37.36L150.298 56.9597L151.238 134.325L114.621 134.875L111.384 125.569L90.1006 131.841L85.2214 97.8116Z" fill="#FABCAD"/>
<path d="M183.864 215.212L197.515 233.046L187.678 233.95L162.321 233.269L160.175 226.078L183.864 215.212Z" fill="#FFCC54"/>
<path d="M210.848 313.814L186.197 332.946L179.271 348.654L143.569 320.792L233.711 262.829L228.546 288.472L211.747 312.104" fill="#C23653"/>
<path d="M243.183 246.41L254.401 215.212V230.811L236.823 293.643L210.848 313.814L224.758 278.345L220.144 270.27L243.183 246.41Z" fill="#F7934E"/>
<path d="M230.234 160.456L213.82 209.242L219.619 239.587L252.656 181.199L251.679 133.691L232.375 94.1795L230.234 151.945L221.666 153.259L230.234 160.456Z" fill="#FABCAD"/>
<path d="M160.175 203.163L161.661 178.201L174.304 186.333L167.538 194.257L180.835 195.701L174.896 207.694L160.175 203.163Z" fill="#FABCAD"/>
<path d="M197.499 173.218L215.327 177.697L219.619 184.4L186.795 179.931L168.853 166.899L167.382 159.094L194.376 166.899L197.972 173.218" fill="#FABCAD"/>
<path d="M161.661 150.038V167.538L171.035 176.553L171.383 152.277L161.661 150.038Z" fill="#FABCAD"/>
<path d="M195.613 249.886L158.627 268.13L155.878 258.039L123.683 263.729L119.916 290.66L157.764 298.62L187.678 295.851L222.856 268.13V213.207L199.333 233.046L195.613 249.886Z" fill="#FABCAD"/>
<path d="M192.069 196.985L232.375 196.694V212.365L204.244 243.131L185.943 205.548L192.069 196.985Z" fill="#FABCAD"/>
<path d="M165.46 226.078L187.678 218.969L178.673 205.064L163.579 215.571L165.46 226.078Z" fill="#FABCAD"/>
<path d="M165.46 226.078V233.04L143.569 234.646L141.979 219.406L155.878 216.236L165.46 226.078Z" fill="#FABCAD"/>
<path d="M190.91 233.456L176.574 209.185L179.604 191.019L201.032 220.663L197.499 231.393L190.91 233.456Z" fill="#F7934E"/>
<path d="M190.91 233.456L199.66 216.673L204.243 230.962V243.131L194.818 250.51L190.91 236.688L183.864 236.693L190.91 233.456Z" fill="#E25D7D"/>
<path d="M140.674 218.626L156.45 228.088L165.46 226.078L177.624 208.541L156.98 210.801L143.246 214.282L140.674 218.626Z" fill="#F59FB6"/>
<path d="M145.574 233.222V216.673L126.572 224.264L127.85 235.483L145.574 233.222Z" fill="#F59FB6"/>
<path d="M126.572 188.146L127.871 181.199L141.978 172.651L140.965 164.763L115.556 169.009L98.1285 150.038L83.2832 149.165L83.9535 191.019L88.339 211.253L104.052 214.158L105.554 192.376L97.9778 182.95L119.266 178.102L121.61 183.708L102.031 194.464L100.779 212.604L114.902 216.574L126.572 188.146Z" fill="#FABCAD"/>
<path d="M88.339 203.849L89.0924 153.41L92.1165 137.214L85.2213 97.8116L75.7852 188.146L83.9534 213.207L88.339 203.849Z" fill="#E97E25"/>
<path d="M115.302 240.876H105.793L98.9807 225.023L122.727 201.604L126.572 218.252L120.597 240.138L115.302 240.876Z" fill="#F7934E"/>
<path d="M88.339 203.849L75.7852 188.146L79.7394 233.95L102.867 274.64L112.989 273.269L94.3872 213.207L89.0924 203.547" fill="#C23653"/>
<path d="M103.829 225.023L115.878 213.207L114.621 207.169L88.3391 203.849L96.523 232.022L104.052 237.473L103.829 225.023Z" fill="#F59FB6"/>
<path d="M125.652 271.279L126.442 287.485L184.831 291.434L165.46 308.498L132.376 312.104L103.288 262.055L96.5229 232.022L103.829 225.023L114.621 262.876L115.302 240.876L118.742 237.473L124.608 238.87L133.27 258.039L125.652 271.279Z" fill="#F7934E"/>
<path d="M175.021 247.428L158.627 268.13L146.754 261.312L142.883 253.586L167.039 252.739L171.659 249.886L175.021 247.428Z" fill="#F7934E"/>
<path d="M124.608 247.948L125.652 271.279L158.627 268.13L153.067 255.378L124.821 248.774" fill="#A7717A"/>
<path d="M180.601 294.988L221.172 260.876L243.183 246.41L224.758 278.345L169.248 316.131L162.654 312.078L180.601 294.988Z" fill="#8B374C"/>
<path d="M111.981 284.44C111.981 285.038 133.956 316.989 133.956 316.989L134.746 332.167L146.93 347.147L165.444 350.052L164.306 341.353L118.736 287.033L111.981 284.44Z" fill="#8B374C"/>
<path d="M130.142 298.62L144.582 303.463H162.55L180.601 294.988L169.248 316.131L153.067 319.088L179.271 348.654L164.649 350.129L119.843 289.517L130.142 298.62Z" fill="#500037"/>
<path d="M79.7397 233.95L102.519 270.478L103.289 262.055L130.142 298.62L108.074 285.604L83.9954 254.77L79.7397 233.95Z" fill="#75246E"/>
<path d="M119.843 200.674L118.736 235.129L122.244 236.688C122.244 236.688 131.394 235.966 131.004 236.044C130.391 236.163 128.167 227.938 128.167 227.938L141.428 220.783L128.437 211.248L124.452 198.413L119.843 200.674Z" fill="#E97E25"/>
<path d="M122.878 201.131L115.879 213.207L114.621 207.169L126.572 188.146V196.616L122.878 201.131Z" fill="#75246E"/>
<path d="M190.91 233.451H187.678V236.683H190.91V233.451Z" fill="#75246E"/>
<path d="M121.085 235.129H118.741V237.473H121.085V235.129Z" fill="#75246E"/>
<path d="M151.446 237.447L161.137 237.722V241.998L163.678 235.129L168.39 235.815L167.102 245.719L168.338 244.602L168.92 236.693L174.922 235.483L174.688 237.447L173.119 243.827L174.278 243.131L175.847 237.447H176.824L176.403 240.424L174.304 240.876L173.955 243.131L179.131 241.432L180.601 235.129L175.021 232.022L150.318 234.646L151.446 237.447Z" fill="#9DDAE6"/>
<path d="M145.756 247.111L141.984 234.641C141.984 234.641 140.15 234.849 140.025 235.477C139.952 235.862 141.064 240.705 142.062 243.448C142.722 245.236 143.428 245.386 143.428 245.386L145.756 247.111Z" fill="#9DDAE6"/>
<path d="M140.768 242.56L139.36 238.403L138.533 238.922L139.115 240.798L141.464 240.601L141.984 243.147C141.984 243.147 135.878 243.194 135.967 243.079C136.055 242.965 132.215 241.203 132.215 241.203L131.597 237.047L135.613 236.054L139.9 236.116L141.158 238.096L141.677 242.773L140.768 242.56Z" fill="#9DDAE6"/>
<path d="M135.722 237.447C135.868 237.306 140.217 237.447 140.217 237.447L141.776 243.682L142.638 243.474L141.963 242.357L141.443 238.605L140.518 234.937L141.599 237.447H150.194L150.531 244.202C150.531 244.202 150.853 245.469 151.004 245.386C151.365 245.275 151.733 245.186 152.106 245.121L151.451 238.117L150.963 235.129L139.209 233.435L134.787 234.433L135.748 237.447" fill="#ADABD5"/>
<path d="M136.102 238.507L136.564 243.09H135.13L133.545 237.447L132.179 237.966L132.953 240.876C132.953 240.876 135.385 240.169 135.348 240.263C135.312 240.356 136.102 244.596 136.102 244.596L131.628 243.417L129.97 235.477L132.989 234.261L134.87 235.051L136.102 238.501" fill="#ADABD5"/>
<path d="M130.168 237.447L133.566 236.496L136.128 238.507V236.236L139.728 235.805L141.443 238.507L141.739 236.496L150.474 236.049L151.451 238.127L151.882 235.815L160.373 235.493L161.162 237.732L163.761 233.233L168.151 233.056L168.598 237.457L173.493 231.861L175.052 234.651L174.714 237.457L176.85 235.898L178.762 236.122L178.424 241.463L182.124 240.169L182.472 235.16L178.933 231.882C178.933 231.882 157.39 232.801 157.504 233.253C157.619 233.705 129.965 234.293 129.965 234.293L129.347 235.893L130.168 237.447Z" fill="#E25D7D"/>
<path d="M183.283 241.39L171.659 249.886L171.207 247.2L161.526 249.886V252.921L149.643 254.77L136.102 252.391L133.971 245.121L156.507 246.41L172.656 243.942L181.656 239.437L183.283 241.39Z" fill="#FFCC54"/>
<path d="M123.683 244.399L119.843 237.447L129.508 242.217L135.333 245.121L137.25 249.886L151.425 253.331L171.659 249.886L165.299 253.814L153.067 255.378L131.456 253.321L125.652 247.444L124.093 244.399" fill="#FFCC54"/>
<path d="M123.683 244.399L132.62 252.65L151.425 253.331L153.067 255.378L132.319 254.62L124.821 248.774L123.683 244.399Z" fill="#EF5D24"/>
<path d="M172.017 245.121L153.867 248.774L131.456 247.948L130.875 241.998L142.322 244.176L151.425 245.121L153.062 245.979L171.659 244.482L172.017 245.121Z" fill="#EF5D24"/>
<path d="M181.656 239.437C181.656 239.437 168.666 244.176 168.473 244.176C168.281 244.176 151.425 245.121 151.425 245.121L152.329 246.015L172.017 245.121L183.282 241.396L188.92 235.987L186.769 234.272L182.092 236.698L181.822 238.424" fill="#C23653"/>
<path d="M119.843 237.447L122.332 240.762L131.456 247.948V242.05L124.556 236.049L120.451 236.693L119.843 237.447Z" fill="#C23653"/>
<path d="M138.378 231.85L156.226 232.323L172.656 230.962L172.308 232.983L154.023 235.129L139.49 233.643L138.378 231.85Z" fill="#C23653"/>
<path d="M130.921 234.958L151.654 235.483L154.657 234.958L138.378 231.85L130.142 232.713L119.843 236.693V237.447H121.173H126.426L130.921 234.958Z" fill="#882B68"/>
<path d="M175.021 234.641L164.976 234.464L151.425 235.483L157.728 233.95L167.445 232.51L172.656 230.962L182.441 231.809L189.175 234.334L183.849 234.958L175.021 234.641Z" fill="#882B68"/>
<path d="M120.784 236.693L130.921 234.958L131.431 241.177L135.156 241.848L136.227 241.287L137.915 242.258H141.958L145.746 244.202H150.5L151.425 245.121L139.147 244.612L123.901 240.824L120.784 237.551V236.693Z" fill="#05012B"/>
<path d="M175.644 233.95L189.175 234.334L188.92 235.981L181.656 239.437L179.338 237.686L179.079 235.212L175.021 234.641L175.644 233.95Z" fill="#05012B"/>
<path d="M150.485 141.022L151.238 134.325L134.844 133.691L133.389 144.28L144.608 148.848L150.485 141.022Z" fill="#FFCC54"/>
<path d="M167.382 158.04L161.661 150.038H153.374L145.559 200.113L160.175 203.163L150.297 212.604L138.731 203.849L145.72 152.916L150.485 141.022L167.736 136.829L179.604 143.594L167.382 158.04Z" fill="#FFCC54"/>
<path d="M138.731 143.153L150.485 141.022L148.027 153.41L141.459 151.342L138.731 143.153Z" fill="#E25D7D"/>
<path d="M167.382 158.04V163.376L175.286 165.434L174.896 154.127L167.382 158.04Z" fill="#FFDFAD"/>
<path d="M179.604 191.019L198.777 224.389L201.032 233.95L203.547 231.04L202.383 218.252L192.069 205.064L184.904 192.376L180.591 190.214L179.604 191.019Z" fill="#882B68"/>
<path d="M179.604 191.019L174.303 186.332L180.253 186.93L192.069 196.985V205.064L182.493 192.376L179.604 191.019Z" fill="#E25D7D"/>
<path d="M151.217 210.214L160.175 203.163L171.659 203.547L179.604 191.019V203.547L177.624 208.541L150.298 216.673L148.411 213.581L151.217 210.214Z" fill="#E97E25"/>
<path d="M146.598 160.347L146.51 160.721L143.569 173.217L135.333 181.199L140.945 162.342V159.557L144.509 157.801" fill="#A7717A"/>
<path d="M134.231 200.113L130.142 200.466L131.197 192.376L125.112 195.556L123.683 202.783L124.93 207.205L136.294 203.547L136.024 199.645L134.231 200.113Z" fill="#FFCC54"/>
<path d="M125.112 196.985L136.637 194.054L137.588 185.059L126.546 190.214L125.112 196.985Z" fill="#FFCC54"/>
<path d="M138.897 186.192L138.534 186.353L127.627 191.071L124.442 203.547L123.351 199.645L126.572 188.146L135.333 181.199L139.038 184.046" fill="#F7934E"/>
<path d="M134.231 200.113L135.333 181.199L143.569 173.217L140.16 207.205L134.231 200.113Z" fill="#F7934E"/>
<path d="M134.231 206.587V209.507L130.381 211.253L125.455 208.92L124.442 205.615L135.333 203.163L134.231 206.587Z" fill="#A98E29"/>
<path d="M151.654 215.212L151.176 209.741L134.231 200.113V206.587L136.663 207.356L136.715 211.877L145.434 218.252L149.404 217.421L151.654 215.212Z" fill="#A98E29"/>
<path d="M147.938 216.673L156.45 212.365L159.162 213.42L158.107 215.212L149.793 219.021L141.433 220.788L141.615 216.085L147.938 216.673Z" fill="#8B374C"/>
<path d="M156.45 212.365L158.107 215.212L168.619 213.789C168.619 213.789 177.853 208.484 177.619 208.541C177.385 208.598 168.162 209.242 168.162 209.242L165.449 210.801H160.627L156.445 212.36" fill="#75246E"/>
<path d="M156.45 212.365C156.45 212.365 160.264 209.247 160.404 209.247H168.167L168.853 211.128L162.654 212.095L156.45 212.365Z" fill="#05012B"/>
<path d="M130.142 210.307L125.356 206.821L123.35 199.645L122.727 201.604L125.886 213.035L131.623 219.64L141.433 220.788L147.938 216.673L135.546 212.272L130.142 210.307Z" fill="#500037"/>
<path d="M130.142 210.307L135.166 208.541L143.246 214.282L147.939 216.673H142.197L131.051 213.898L130.142 210.307Z" fill="#05012B"/>
<path d="M96.3516 138.876L102.867 134.875L120.077 138.876L100.004 150.038L96.3516 138.876Z" fill="#FFCC54"/>
<path d="M90.1006 142.166L89.0925 153.41L95.5565 157.343L94.6835 138.876L90.1006 142.166Z" fill="#E25D7D"/>
<path d="M93.9144 148.385L92.4387 139.936L97.1152 137.733L100.571 147.034L112.989 140.487L116.601 136.575L126.572 140.02L131.425 148.385L100.571 155.842L93.9144 148.385Z" fill="#F7934E"/>
<path d="M100.55 153.878L93.9146 148.385L95.5565 157.343C95.5565 157.343 102.234 160.238 102.311 160.191C102.389 160.144 104.037 155.514 104.037 155.514L100.55 153.878Z" fill="#882B68"/>
<path d="M127.991 146.135L117.692 137.733L138.731 143.153L148.027 153.41L146.598 160.347L140.944 162.342L127.991 151.389V146.135Z" fill="#C23653"/>
<path d="M112.989 132.309L104.577 131.841L92.1167 137.214L90.1006 142.166L101.548 139.23L112.989 140.487L114.902 138.378L112.989 132.309Z" fill="#C23653"/>
<path d="M112.99 132.309L134.844 133.691C134.844 133.691 139.152 143.153 138.731 143.153C138.31 143.153 112.99 140.487 112.99 140.487V132.309Z" fill="#75246E"/>
<path d="M130.417 169.336H138.861L140.945 162.342L133.389 160.191L128.744 163.735L130.417 169.336Z" fill="#FABCAD"/>
<path d="M115.058 146.863H127.871V154.906L112.99 154.6L115.058 146.863Z" fill="#FFCC54"/>
<path d="M115.556 153.259V147.034H111.384L104.052 153.259L104.488 159.791L115.556 153.259Z" fill="#A98E29"/>
<path d="M102.031 160.347L100.779 157.343L104.385 152.277L104.961 159.141L102.031 160.347Z" fill="#7375AE"/>
<path d="M119.266 170.297L110.293 171.16L103.927 166.172L102.031 160.347L105.486 158.539L116.601 164.847L119.266 170.297Z" fill="#C23653"/>
<path d="M130.417 165.153V169.336L119.266 170.297L107.487 166.208L104.961 159.328L115.686 158.362L116.185 162.555L130.417 165.153Z" fill="#F7934E"/>
<path d="M110.293 160.44L112.99 164.093L130.417 165.153L134.106 162.342L123.543 160.44H110.293Z" fill="#FFCC54"/>
<path d="M126.099 153.259V147.034L140.945 159.557V162.342H137.022L125.829 157.53L126.099 153.259Z" fill="#6673AC"/>
<path d="M111.384 147.647L100.571 157.53V153.878L111.384 146.135L112.99 146.774L111.664 147.647" fill="#463190"/>
<path d="M127.991 146.135L140.944 156.891V159.791L126.572 147.647H111.384V146.135H127.991Z" fill="#500037"/>
<path d="M113.047 161.178L116.601 161.609L115.93 157.53L112.662 156.891L112.148 157.801L113.047 161.178Z" fill="#AEE0EA"/>
<path d="M110.293 160.44L113.047 161.178V158.684L115.686 157.801L114.938 153.878L110.485 156.985L110.293 160.44Z" fill="#00ADDA"/>
<path d="M108.302 159.328L110.293 160.44L111.384 156.024L109.492 157.084L108.302 159.328Z" fill="#8C2B90"/>
<path d="M134.106 162.342H137.021L136.18 160.986L133.644 158.845L132.839 158.539L134.106 162.342Z" fill="#8C2B90"/>
<path d="M130.916 162.342H134.107C134.107 162.342 133.551 158.705 133.457 158.705C133.363 158.705 128.744 155.821 128.744 155.821V159.235L130.916 162.321" fill="#AEE0EA"/>
<path d="M126.572 162.342H130.916V159.869L129.44 159.141L127.206 159.5L126.572 162.342Z" fill="white"/>
<path d="M104.961 158.814L115.556 153.259H126.099L136.741 160.18L137.021 162.342L129.44 156.647V159.141L126.572 162.342L116.601 161.609L114.33 158.767V154.813L108.303 159.328H104.961V158.814Z" fill="#05012B"/>
<path d="M214.761 157.988L221.276 160.648L230.235 160.456V151.945L218.346 144.322L202.539 142.69L197.406 145.122L200.866 148.931L214.761 157.988Z" fill="#FABCAD"/>
<path d="M177.941 135.457L167.736 136.829L166.265 145.522H171.035L177.941 143.163V135.457Z" fill="#5956A5"/>
<path d="M173.098 158.04H167.382L171.035 145.522L200.585 138.876L202.077 145.522V149.165L185.984 149.767L174.896 158.814L173.098 158.04Z" fill="#BB3F97"/>
<path d="M202.55 135.457L218.912 144.722L210.848 147.247L202.077 145.522L198.751 142.368L202.55 135.457Z" fill="#C23653"/>
<path d="M177.941 135.457H202.55L202.077 145.522H171.035L177.941 135.457Z" fill="#75246E"/>
<path d="M196.948 154.886L197.499 149.165H189.17L184.68 156.668L196.948 154.886Z" fill="#FFCC54"/>
<path d="M210.848 162.695L220.144 164.68L215.327 158.388L210.848 154.486L209.486 159.931L208.021 160.856L210.848 162.695Z" fill="#F7934E"/>
<path d="M186.384 154.886L191.638 149.076L184.68 148.214L178.777 152.906L173.098 158.04V161.724L174.896 162.134L186.681 156.668L186.577 155.177" fill="#F7934E"/>
<path d="M197.504 173.218L208.063 171.461L211.747 165.782L210.848 162.695L201.734 160.575C201.734 160.575 189.944 167.252 190.302 166.899C190.661 166.546 197.478 173.218 197.478 173.218" fill="#F7934E"/>
<path d="M193.955 167.538L197.499 173.218L185.174 171.399L175.285 165.434L174.896 162.134L184.005 162.041L194.376 165.668L193.955 167.538Z" fill="#E25D7D"/>
<path d="M180.835 162.415L181.427 163.48C181.427 163.48 193.778 167.575 193.955 167.517C194.132 167.46 205.251 166.229 205.251 166.229L205.511 163.111L186.197 160.549L180.835 162.415Z" fill="#FFCC54"/>
<path d="M196.948 154.886L209.486 159.931L210.848 162.695L208.374 162.742L197.499 158.513L195.93 155.816L196.948 154.886Z" fill="#C23653"/>
<path d="M174.896 162.134V161.048L186.384 154.886H196.948L197.499 156.668L185.984 158.513L174.896 162.134Z" fill="#882B68"/>
<path d="M177.941 155.66L186.78 150.511L201.386 150.734L215.327 158.388L213.295 155.364L201.407 148.214H184.68L178.777 152.906L177.941 155.66Z" fill="#05012B"/>
<path d="M205.511 163.501L199.588 164.02L201.297 158.798L206.623 160.851L205.511 163.501Z" fill="#9DDAE6"/>
<path d="M208.375 162.742L205.511 163.501L205.745 160.575L208.375 162.742Z" fill="#5956A5"/>
<path d="M180.835 162.436L176.668 162.165L177.4 161.152L182.16 159.282L180.835 162.436Z" fill="#5956A5"/>
<path d="M183.703 162.695L180.835 162.436L181.24 159.765L187.05 157.167L188.53 158.715L183.703 162.695Z" fill="#00ADDA"/>
<path d="M187.663 163.137L183.703 162.695L183.896 160.43L188.266 159.676L187.663 163.137Z" fill="white"/>
<path d="M174.896 162.134L186.681 156.668H197.499L207.138 160.18L208.374 162.742L201.796 159.432L201.661 161.989L199.588 164.02L187.663 163.137L186.738 160.975L186.914 157.619L176.668 162.165L174.896 162.134Z" fill="#05012B"/>
<path d="M188.53 158.715L192.609 158.965L193.02 161.157L196.667 161.812L197.026 160.061L200.398 160.523L199.546 162.638L197.899 163.376L189.455 162.529L188.359 161.24L188.53 158.715Z" fill="#265EAC"/>
<path d="M197.972 158.388H195.93V160.43H197.972V158.388Z" fill="white"/>
<path d="M115.759 156.647L119.843 156.897L120.254 159.089L123.901 159.744L124.255 157.993L127.627 158.455L126.78 160.57L125.133 161.308L116.689 160.461L115.593 159.172L115.759 156.647Z" fill="#265EAC"/>
<path d="M125.2 156.32H123.158V158.362H125.2V156.32Z" fill="white"/>
<path d="M194.116 2.62924L218.969 4.42709L228.166 11.5977L173.67 5.83004L194.116 2.62924Z" fill="#A4DDED"/>
</svg>
