<svg xmlns="http://www.w3.org/2000/svg" width="196" height="196" fill="none">
  <g clip-path="url(#a)">
    <path fill="url(#b)" d="m-7.5 66 63-94L168-9.5 207.5 3 201 37l16.5 109L96 243.5-25 195l17.5-25-6-18.5 6-85.5Z"/>
    <path fill="#fff" d="m204.782 186.814 24.756 9.305-15.619 20.576-24.305-11.293 15.16-20.224M64.265 206.979c-1.506-1.369 6.183-25.949 6.183-25.949l82.303-25.967 19.458 39.91-88.42 70.445-17.037-37.012-2.487-21.427Z"/>
    <path fill="#fff" d="m107.266 190.155 25.652-25.424 21.537-99.781-99.214-1.524-3.75 68.594 13.595 32.391 24.212 26.18 17.968-.436Z"/>
    <path fill="#ADABD5" d="m79.397 197.665 4.393 16.995 9.811 2.898 13.665-2.504v2.855l-12.782 1.636-13.617-4.491 16.424 16.379-5.36 17.218-20.603-34.342.691-14.457 4.893-6.976 4.632-2.721 1.43 7.114-3.577.396Z"/>
    <path fill="#292D56" d="m56.044 194.666-15.52 11.917-34.018 43.239L-5 299.007l76.328-.998 12.833-33.617 8.035-16.433-27.4-36.334-8.752-16.959Z"/>
    <path fill="#C23653" d="m62.495 181.03-10.04 6.708 1.813 7.24-4.632 7.246 7.56 20.637 19.702 11.433-4.879-12.934 5.537-7.855-1.534-7.934-7.808-11.161 2.091-9.994-7.81-3.386Z"/>
    <path fill="#75246E" d="m81.544 186.814-5.522 18.757-13.528 3.685.773-10.818-.773-17.408 9.253-8.525 9.797 14.309Z"/>
    <path fill="#FFDFAD" d="m177.172 175.518 1.551-2.659-7.304-19.08h-2.85l-12.411 6.382-25.416 30.323-4.241 9.961v14.609l26.113-20.076 6.377 3.46 12.757-11.624 5.424-11.296Z"/>
    <path fill="#9DDAE6" d="m134.118 219.545 43.054-44.027L238 196.808l-29.446-2.398-3.575 9.073-66.938 17.878-3.923-1.816Z"/>
    <path fill="#00ADDA" d="m96.001 231.433 7.471-24.85 24.915-12.173 1.647 20.247-22.953 17.94-11.08-1.164Z"/>
    <path fill="#463190" d="m130.057 199.025.685 11.192 3.376 9.328-3.376-1.866-1.964-8.395-.391-10.455v-4.419l1.67 4.615Z"/>
    <path fill="#100249" d="m122.974 183.371 7.768 7.113-.685 8.541-1.67-.196-9.033-8.837 3.62-6.621Z"/>
    <path fill="#7375AE" d="m122.263 183.371 6.124 15.458-24.915 7.754.719-12.173 18.072-11.039Zm30.28-20.109 16.026-9.483h-19.682l-2.181 6.382 5.837 3.101Z"/>
    <path fill="#FFDFAD" d="m94.484 158.076 15.913-15.151 5.452 10.573s-12.085 8.811-13.836 9.058c-1.751.247-14.783 4.646-14.783 4.646l7.254-9.126Zm-12.209-47.964-.922 6.337-8.749 5.605 2.364-7.207 7.307-4.735Zm5.627-5.607h6.045v4.114l-.023 6.15.56 13.532 11.914-3.754-1.853-3.663-4.035-1.776-1.493-5.612v-3.904l-3.8-13.485-7.417.604.102 7.794Z"/>
    <path fill="#FFDFAD" d="m107.541 115.322 12.788 12.937h-13.541l-2.785-9.151-4.986-5.612-2.44-6.422 6.974 1.753 3.99 6.495Zm15.433-1.208 8.063 1.169-3.991 3.502-1.751-1.045-3.785-2.26 1.464-1.366Zm-4.708-1.116 15.683-4.733-7.757-3.372-3.89-3.915-.843 4.131-2.847.419.045 3.139-10.028 3.024 1.237 2.696 8.201.896.199-2.285Z"/>
    <path fill="#FFCC54" d="m148.699 139.937 3.844 23.325-17.942 13.566 8.173-39.041 5.925 2.15Z"/>
    <path fill="#FABCAD" d="M144.742 118.307c.022.141 5.202 15.624 5.202 15.624l-.326 5.542-1.791-.359-6.042-4.708 2.957-15.823"/>
    <path fill="#FFDFAD" d="m149.851 122.189-1.388-4.449 1.725-2.715-.292-9.497-4.432 8.066.761 8.013 2.013 3.403 1.38.852.233-3.673Z"/>
    <path fill="#F59FB6" d="m148.763 123.715 1.504-5.408 1.371 4.944-.595 10.804-.776 5.91-2.128.635-5.803-1.262 1.773-4.932 4.607 3.977.691-3.696-2.639-8.311.219-4.249 1.776 1.588Z"/>
    <path fill="#E97E25" d="m154.418 112.504-2.85 11.022-1.38-4.943.953-11.265-.874-4.134 4.722-1.855.334 3.946-.905 7.229Z"/>
    <path fill="#C23653" d="m152.043 103.277.714 6.276-2.569 9.03-1.472-11.509 3.327-3.797Z"/>
    <path fill="#FFCC54" d="m149.053 107.889 5.936-4.944-1.521-3.328-7.035 2.159-2.186 16.902 2.521 7.698 1.995-2.661-1.995-8.173 2.285-7.653Z"/>
    <path fill="#FFDFAD" d="m144.109 134.406 1.158-10.017-2.209-13.493-20.084 33.156v19.21l16.236-10.101 4.899-18.755Zm-28.046-43.139h18.274l.45-26.351-29.753-14.994-18.108-2.094L85.8 97.043l16.265-3.055 13.999-2.72Z"/>
    <path fill="#6657A5" d="m124.944 20.409 11.04 3.878s9.62 8.555 9.994 8.938c.374.382 4.823 6.975 4.823 6.975v5.784l-30.916-19.51 5.059-6.068"/>
    <path fill="#A7B737" d="m111.502 19.422 13.442.973 4.975 3.878 3.876 6.762-12.032 4.652-34.308-9.126 8.85-6.762 15.197-.377Z"/>
    <path fill="#F59FB6" d="m148.019 41.89-2.038-8.68 8.476 8.68 7.485 23.554-.408 4.078-15.556-10.047-19.038-25.256s3.091-3.766 3.479-3.92c.388-.155 17.6 11.59 17.6 11.59Z"/>
    <path fill="#FFCC54" d="m139.764 42.471 10.615 12.639-17.082-.787-18.296-16.736 10.938-5.557 13.825 10.441Z"/>
    <path fill="#7793CB" d="m120.866 30.912-4.471-5.307 13.524.756v-2.088l8.251 3.32 9.846 14.296-15.812-6.202 7.56 6.784-8.35-4.263-11.043-1.543.495-5.753Zm-27.414 4.775 9.579.584 24.488 21.711-7.164 3.438-8.553-2.634-22.08-15.716-2.796-4.241 6.526-3.142Z"/>
    <path fill="#FFCC54" d="M118.438 54.703 97.986 38.207l18.715-.622 18.861 13.305-.511 9.503-7.605 1.026-9.008-6.718Z"/>
    <path fill="#F7934E" d="m136.917 48.713-16.051-10.578 10.548.073-10.548-7.296-13.611-3.05-18.344.675-9.832 3.237 16.197 6.515 25.59 7.684 10.725 4.963 2.844 5.65 10.68 6.84.863-8.026-9.061-6.687Z"/>
    <path fill="#BB3F97" d="m86.842 30.299 20.947-2.319-15.12-3.358-4.36-1.262-15.182 2.245L69.06 30.3l9.817 4.497 7.965-4.497Zm-23.667 0L56.12 33.21l-5.536 8.569 5.97 1.956 7.913-5.528-1.292-7.91Z"/>
    <path fill="#75246E" d="m62.163 32.747-11.58 9.033-6.146 8.229 3.03 9.103 15.44-5.54 10.22-13.195-10.964-7.63Z"/>
    <path fill="#573393" d="m72.146 27.98 20.522-3.358 8.117-3.623 10.716-1.577L98.051 18l-21.942 5.896L63.175 30.3l-.827 2.046 7.347.866 2.45-5.23Z"/>
    <path fill="#573393" d="m86.842 30.299 20.219 4.542 13.805 11.132-29.125-6.057 2.695 3.48-12.67-.54-15.053-9.173 4.455-2.496 15.674-.888Z"/>
    <path fill="#05012B" d="m67.427 43.508-8.018-4.837 2.94-6.326 9.797-4.365 14.696 2.32-16.388 3.117 5.256 1.515 2.647 3.277-6.835 7.141-4.095-1.84Z"/>
    <path fill="#C23653" d="m126.94 58.199-7.965-9.7 12.616 2.438 10.292 8.743-5.435-11.18 13.791 6.203 9.463 12.613v10.525l-17.156 3.199-16.267-21.582.661-1.26Z"/>
    <path fill="#8C2B90" d="m87.8 48.809 14.952 13.552 14.913 4.992-11.796-10.576 18.277 10.576 9.151 1.588-8.384-10.15-21.261-10.572 7.338 9.033-16.554-13.856-16.079-5.188 1.464 9.775 7.98.826Zm72.942 16.621-5.515-14.089-.772-9.452 8.15 16.942 1.844 17.52-2.918 8.615-2.079-2.389-.883-13.142 2.173-4.005Zm-11.689 38.622-2.856 9.444-.93 10.893-1.529-1.071-.573-7.31-2.735-6.264.933-23.075 7.69 6.023v11.36Z"/>
    <path fill="#313A92" d="m145.722 72.206-11.469-9.48 2.903 6.215-10.216-10.742-8.502-3.496 13.757 14.238 7.979 24.176 2.462-2.805 3.991 4.584 3.185 4.716 4.643 1.366-2.108-23.136-6.625-5.636Z"/>
    <path fill="#05012B" d="m145.722 72.206 4.744 11.293-.677 9.618 2.597 6.037-5.759-4.258 2.426 9.156 3.333-2.383 2.032 3.51v7.325l2.937-9.298.677-9.218-3.502-9.924 5.307 7.203 1.694-6.3-.789-19.537-7.114-8.243-3.389-2.484 5.309 15.584.79 4.741-6.664-12.984-6.509-5.76 9.182 18.972-6.625-3.05Z"/>
    <path fill="#485EAB" d="m47.498 126.064-.962 11.29 5.017 8.016-.438-20.823-3.617 1.517Z"/>
    <path fill="#2C2A6C" d="m48.824 107.074-4.387 3.038 3.06 15.952 6.546 5.082-5.219-24.072Z"/>
    <path fill="#8B374C" d="m44.058 50.307-4.5 7.94-1.18 6.669 4.918-.677 4.685-11.127-3.923-2.805Z"/>
    <path fill="#8B374C" d="m39.114 71.883 6.652 29.786 3.994-3.558-9.112-33.532-1.534 7.304Z"/>
    <path fill="#8B374C" d="m43.293 53.932.764-3.625 7.26-5.728 7.327-1.183-8.586 10.536 17.52-6.975-12.144 19.196s-13.403 8.237-13.265 8.03c.138-.209-.843-8.379-.843-8.379l3.072-11.588-1.125-.28"/>
    <path fill="#500037" d="m54.288 61.366-7.355 3.213-4.624 6.894 5.577-13.358-4.674 2.377 4.286-11.068-4.205 4.508-4.916 10.984.737 6.967 1.228-1.72 4.427 22.335 1.562 14.387 2.946 5.619 5.418-38.406-.407-12.732Z"/>
    <path fill="#FABCAD" d="m52.602 70.905 1.686-9.539 13.139-17.858 10.93-5.3 9.443 10.6.51 41.847-19.807.298-1.75-5.034-11.512 3.392-2.64-18.406Z"/>
    <path fill="#FFCC54" d="m105.956 134.406 7.384 9.646-5.321.489-13.715-.369-1.16-3.889 12.812-5.877Z"/>
    <path fill="#C23653" d="m120.551 187.738-13.333 10.349-3.746 8.496-19.311-15.07 48.757-31.352-2.794 13.87-9.086 12.783"/>
    <path fill="#F7934E" d="m138.041 151.28 6.068-16.874v8.437l-9.508 33.985-14.05 10.91 7.524-19.184-2.496-4.368 12.462-12.906Z"/>
    <path fill="#FABCAD" d="m131.037 104.789-8.878 26.388 3.137 16.413 17.869-31.582-.529-25.696-10.441-21.371-1.158 31.244-4.634.711 4.634 3.893Zm-37.894 23.099.804-13.501 6.838 4.398-3.66 4.286 7.193.781-3.213 6.487-7.962-2.451Z"/>
    <path fill="#FABCAD" d="m113.331 111.691 9.643 2.423 2.321 3.626-17.754-2.417-9.704-7.049-.796-4.222 14.601 4.222 1.945 3.417"/>
    <path fill="#FABCAD" d="M93.947 99.154v9.465l5.07 4.877.189-13.131-5.259-1.211Zm18.364 54.006-20.005 9.868-1.487-5.458-17.414 3.078-2.038 14.567 20.472 4.305 16.18-1.498 19.027-14.994v-29.707l-12.723 10.731-2.012 9.108Z"/>
    <path fill="#FABCAD" d="m110.394 124.547 21.801-.158v8.477l-15.216 16.641-9.898-20.329 3.313-4.631Zm-14.393 15.736 12.018-3.845-4.87-7.521-8.165 5.683 1.017 5.683Zm0 0v3.766l-11.84.868-.86-8.243 7.518-1.714L96 140.283Z"/>
    <path fill="#F7934E" d="m109.767 144.274-7.754-13.128 1.639-9.826 11.59 16.034-1.911 5.804-3.564 1.116Z"/>
    <path fill="#E25D7D" d="m109.767 144.274 4.733-9.078 2.479 7.729v6.582l-5.098 3.991-2.114-7.476-3.811.003 3.811-1.751Z"/>
    <path fill="#F59FB6" d="m82.595 136.252 8.533 5.118 4.873-1.087 6.58-9.486-11.166 1.223-7.428 1.883-1.392 2.349Z"/>
    <path fill="#F59FB6" d="M85.246 144.147v-8.951l-10.278 4.106.691 6.068 9.587-1.223Z"/>
    <path fill="#FABCAD" d="m74.968 119.766.702-3.758 7.63-4.623-.547-4.266-13.744 2.296-9.426-10.261-8.03-.472.363 22.638 2.372 10.944 8.499 1.571.812-11.781-4.098-5.099 11.515-2.622 1.268 3.033-10.59 5.818-.678 9.811 7.64 2.147 6.312-15.376Z"/>
    <path fill="#E97E25" d="m54.288 128.259.407-27.281 1.636-8.76-3.73-21.313-5.103 48.861 4.418 13.555 2.372-5.062Z"/>
    <path fill="#F7934E" d="M68.872 148.287h-5.144l-3.684-8.575 12.844-12.667 2.08 9.005-3.233 11.838-2.863.399Z"/>
    <path fill="#C23653" d="m54.288 128.259-6.79-8.493 2.138 24.775 12.51 22.009 5.475-.742-10.062-32.487-2.864-5.225"/>
    <path fill="#F59FB6" d="m62.666 139.712 6.517-6.391-.68-3.266-14.215-1.796 4.426 15.239 4.073 2.948-.121-6.734Z"/>
    <path fill="#F7934E" d="m74.47 164.731.427 8.766 31.582 2.136-10.478 9.23-17.894 1.951-15.733-27.071-3.66-16.245 3.952-3.786 5.837 20.475.369-11.9 1.86-1.841 3.173.756 4.685 10.368-4.12 7.161Z"/>
    <path fill="#F7934E" d="m101.173 151.831-8.867 11.197-6.422-3.687-2.094-4.179 13.066-.459 2.499-1.543 1.818-1.329Z"/>
    <path fill="#A7717A" d="m73.905 152.112.565 12.619 17.836-1.703-3.008-6.897-15.278-3.572"/>
    <path fill="#8B374C" d="m104.191 177.556 21.945-18.451 11.905-7.825-9.966 17.274-30.025 20.438-3.566-2.192 9.707-9.244Zm-37.115-5.706c0 .324 11.885 17.605 11.885 17.605l.428 8.21 6.59 8.103 10.014 1.571-.615-4.705-24.649-29.381-3.653-1.403Z"/>
    <path fill="#500037" d="m76.898 179.52 7.81 2.62h9.72l9.763-4.584-6.14 11.436-8.753 1.599 14.174 15.992-7.909.798-24.235-32.785 5.57 4.924Z"/>
    <path fill="#75246E" d="m49.636 144.541 12.322 19.758.416-4.556 14.524 19.777-11.936-7.04-13.024-16.678-2.302-11.261Z"/>
    <path fill="#E97E25" d="m71.328 126.542-.599 18.637 1.897.843s4.95-.391 4.739-.349c-.332.065-1.535-4.384-1.535-4.384l7.173-3.87-7.026-5.158-2.156-6.941-2.493 1.222Z"/>
    <path fill="#75246E" d="m72.97 126.789-3.787 6.532-.68-3.266 6.465-10.289v4.581l-1.999 2.442Zm36.797 17.482h-1.748v1.748h1.748v-1.748ZM72 145.179h-1.268v1.267H72v-1.267Z"/>
    <path fill="#9DDAE6" d="m88.421 146.432 5.242.149v2.313l1.374-3.715 2.55.371-.697 5.357.668-.605.315-4.277 3.246-.655-.126 1.062-.849 3.451.627-.376.849-3.075h.528l-.228 1.611-1.135.244-.188 1.22 2.799-.919.795-3.409-3.018-1.681-13.361 1.419.61 1.515Zm-3.077 5.228-2.04-6.746s-.993.113-1.06.453c-.04.208.562 2.827 1.102 4.311.357.967.739 1.049.739 1.049l1.259.933Z"/>
    <path fill="#9DDAE6" d="m82.646 149.198-.762-2.249-.447.281.315 1.015 1.27-.107.282 1.377s-3.303.025-3.255-.036c.048-.062-2.03-1.015-2.03-1.015l-.334-2.248 2.173-.537 2.319.034.68 1.07.28 2.53-.491-.115Z"/>
    <path fill="#ADABD5" d="M79.917 146.432c.079-.076 2.431 0 2.431 0l.843 3.373.467-.113-.366-.604-.28-2.029-.501-1.984.585 1.357h4.648l.183 3.654s.174.686.256.641c.195-.061.394-.108.595-.144l-.354-3.788-.264-1.616-6.357-.917-2.392.54.52 1.63"/>
    <path fill="#ADABD5" d="m80.122 147.005.25 2.479h-.775l-.858-3.052-.739.281.419 1.574s1.315-.382 1.296-.332c-.02.051.407 2.344.407 2.344l-2.42-.638-.896-4.294 1.633-.658 1.017.427.666 1.867"/>
    <path fill="#E25D7D" d="m76.912 146.432 1.839-.514 1.385 1.087v-1.228l1.948-.233.927 1.461.16-1.087 4.725-.242.528 1.124.234-1.25 4.592-.175.427 1.212 1.405-2.434 2.375-.096.242 2.381 2.648-3.027.843 1.509-.183 1.518 1.155-.843 1.034.12-.182 2.89 2.001-.7.188-2.71-1.914-1.773s-11.652.497-11.59.742c.061.244-14.896.562-14.896.562l-.335.866.444.84Z"/>
    <path fill="#FFCC54" d="m105.642 148.565-6.287 4.596-.245-1.454-5.236 1.454v1.641l-6.428 1-7.324-1.287-1.152-3.932 12.189.697 8.735-1.335 4.868-2.436.88 1.056Z"/>
    <path fill="#FFCC54" d="m73.405 150.193-2.077-3.761 5.228 2.58 3.15 1.571 1.037 2.578 7.667 1.863 10.945-1.863-3.44 2.124-6.617.846-11.689-1.113-3.139-3.178-.843-1.647"/>
    <path fill="#EF5D24" d="m73.405 150.193 4.834 4.463 10.171.368.888 1.107-11.222-.41-4.056-3.162-.615-2.366Z"/>
    <path fill="#EF5D24" d="m99.548 150.583-9.817 1.976-12.121-.447-.315-3.218 6.191 1.178 4.924.511.886.464 10.058-.809.194.345Z"/>
    <path fill="#C23653" d="M104.762 147.509s-7.026 2.563-7.13 2.563c-.104 0-9.222.511-9.222.511l.49.484 10.648-.484 6.094-2.015 3.049-2.926-1.164-.927-2.529 1.312-.146.934m-33.524-.529 1.346 1.793 4.935 3.887v-3.19l-3.732-3.246-2.22.349-.329.407Zm10.025-3.027 9.654.256 8.887-.736-.188 1.093-9.89 1.161-7.861-.804-.602-.97Z"/>
    <path fill="#882B68" d="m77.32 145.086 11.214.284 1.624-.284-8.805-1.681-4.455.467-5.57 2.153v.407h3.56l2.432-1.346Z"/>
    <path fill="#882B68" d="m101.173 144.914-5.433-.095-7.33.551 3.41-.829 5.255-.779 2.82-.837 5.291.458 3.643 1.366-2.881.337-4.775-.172Z"/>
    <path fill="#05012B" d="m71.837 146.025 5.483-.939.276 3.364 2.015.363.579-.304.913.526h2.187l2.048 1.051h2.572l.5.497-6.64-.275-8.247-2.049-1.686-1.771v-.463Zm29.673-1.484 7.319.208-.138.891-3.929 1.869-1.254-.948-.14-1.337-2.195-.31.337-.373Z"/>
    <path fill="#FFCC54" d="m87.902 94.277.407-3.622-8.867-.343-.787 5.728 6.068 2.47 3.179-4.233Zm9.139 9.205-3.094-4.328h-4.483l-4.227 27.085 7.906 1.649-5.343 5.107-6.256-4.736 3.78-27.548 2.578-6.434 9.33-2.268 6.42 3.66-6.61 7.813Z"/>
    <path fill="#E25D7D" d="m81.544 95.43 6.358-1.153-1.33 6.701-3.552-1.119-1.476-4.43Z"/>
    <path fill="#FFDFAD" d="M97.041 103.482v2.886l4.275 1.113-.211-6.116-4.064 2.117Z"/>
    <path fill="#882B68" d="m103.652 121.32 10.371 18.049 1.219 5.172 1.361-1.574-.63-6.917-5.579-7.133-3.876-6.863-2.332-1.169-.534.435Z"/>
    <path fill="#E25D7D" d="m103.652 121.32-2.867-2.535 3.218.323 6.391 5.439v4.37l-5.18-6.863-1.562-.734Z"/>
    <path fill="#E97E25" d="m88.298 131.702 4.845-3.814 6.211.208 4.298-6.776v6.776l-1.071 2.701-14.78 4.399-1.02-1.673 1.517-1.821Z"/>
    <path fill="#A7717A" d="m85.8 104.73-.049.202-1.59 6.759-4.455 4.317 3.035-10.199v-1.506l1.928-.95"/>
    <path fill="#FFCC54" d="m79.11 126.239-2.212.191.57-4.376-3.29 1.72-.773 3.909.674 2.392 6.147-1.979-.146-2.11-.97.253Z"/>
    <path fill="#FFCC54" d="m74.178 124.547 6.234-1.586.514-4.865-5.972 2.789-.776 3.662Z"/>
    <path fill="#F7934E" d="m81.634 118.709-.197.087-5.899 2.552-1.723 6.748-.59-2.11 1.743-6.22 4.738-3.758 2.004 1.54"/>
    <path fill="#F7934E" d="m79.11 126.239.596-10.231 4.455-4.317-1.844 18.384-3.207-3.836Z"/>
    <path fill="#A98E29" d="M79.11 129.74v1.58l-2.082.944-2.665-1.262-.548-1.787 5.891-1.327-.596 1.852Z"/>
    <path fill="#A98E29" d="m88.534 134.406-.259-2.96-9.165-5.207v3.501l1.316.416.028 2.446 4.716 3.448 2.147-.45 1.217-1.194Z"/>
    <path fill="#8B374C" d="m86.524 135.196 4.604-2.33 1.467.57-.57.97-4.497 2.06-4.522.956.098-2.544 3.42.318Z"/>
    <path fill="#75246E" d="m91.128 132.866.897 1.54 5.685-.77s4.995-2.87 4.868-2.839c-.126.031-5.115.38-5.115.38l-1.467.843h-2.608l-2.263.843"/>
    <path fill="#05012B" d="M91.128 132.866s2.063-1.687 2.139-1.687h4.199l.37 1.018-3.352.523-3.356.146Z"/>
    <path fill="#500037" d="m76.898 131.753-2.588-1.886-1.085-3.881-.337 1.059 1.709 6.183 3.102 3.572 5.307.622 3.518-2.226-6.703-2.381-2.923-1.062Z"/>
    <path fill="#05012B" d="m76.898 131.753 2.718-.956 4.37 3.106 2.538 1.293H83.42l-6.029-1.501-.492-1.942Z"/>
    <path fill="#FFCC54" d="m58.622 93.117 3.524-2.165 9.308 2.165-10.857 6.037-1.975-6.037Z"/>
    <path fill="#E25D7D" d="m55.24 94.896-.545 6.082 3.497 2.127-.473-9.988-2.478 1.779Z"/>
    <path fill="#F7934E" d="m57.303 98.26-.798-4.57 2.53-1.192 1.869 5.031 6.717-3.541 1.953-2.116 5.394 1.863 2.625 4.525-16.69 4.033-3.6-4.033Z"/>
    <path fill="#882B68" d="m60.893 101.231-3.59-2.971.889 4.845s3.611 1.566 3.653 1.54c.043-.025.933-2.529.933-2.529l-1.885-.885Z"/>
    <path fill="#C23653" d="m75.735 97.043-5.57-4.545 11.38 2.932 5.027 5.548-.773 3.752-3.058 1.079-7.006-5.925v-2.841Zm-8.115-7.479-4.55-.253-6.739 2.906-1.09 2.679 6.191-1.588 6.189.68 1.034-1.141-1.034-3.283Z"/>
    <path fill="#75246E" d="m67.62 89.564 11.822.748s2.33 5.118 2.102 5.118c-.227 0-13.923-1.442-13.923-1.442v-4.424Z"/>
    <path fill="#FABCAD" d="M77.047 109.592h4.568l1.127-3.783-4.087-1.164-2.513 1.917.905 3.03Z"/>
    <path fill="#FFCC54" d="M68.74 97.436h6.93v4.351l-8.05-.166 1.12-4.185Z"/>
    <path fill="#A98E29" d="M69.01 100.896v-3.367h-2.258l-3.965 3.367.236 3.533 5.986-3.533Z"/>
    <path fill="#7375AE" d="m61.694 104.73-.678-1.625 1.95-2.74.313 3.713-1.585.652Z"/>
    <path fill="#C23653" d="m71.016 110.112-4.854.466-3.443-2.698-1.026-3.15 1.87-.978 6.011 3.412 1.442 2.948Z"/>
    <path fill="#F7934E" d="M77.047 107.329v2.263l-6.031.52-6.371-2.212-1.366-3.721 5.8-.523.27 2.268 7.698 1.405Z"/>
    <path fill="#FFCC54" d="m66.162 104.78 1.459 1.976 9.426.573 1.996-1.52-5.714-1.029h-7.167Z"/>
    <path fill="#6673AC" d="M74.712 100.896v-3.367l8.03 6.774v1.506H80.62l-6.054-2.603.146-2.31Z"/>
    <path fill="#463190" d="m66.752 97.86-5.848 5.346v-1.975l5.848-4.188.869.346-.717.472"/>
    <path fill="#500037" d="m75.735 97.043 7.007 5.818v1.568l-7.774-6.568h-8.216v-.818h8.983Z"/>
    <path fill="#AEE0EA" d="m67.652 105.179 1.922.234-.362-2.207-1.768-.345-.278.491.486 1.827Z"/>
    <path fill="#00ADDA" d="m66.162 104.78 1.49.399v-1.349l1.428-.477-.405-2.122-2.409 1.68-.104 1.869Z"/>
    <path fill="#8C2B90" d="m65.086 104.179 1.076.601.59-2.389-1.023.574-.643 1.214Zm13.957 1.63h1.576l-.455-.734-1.371-1.158-.436-.165.686 2.057Z"/>
    <path fill="#AEE0EA" d="M77.317 105.809h1.726s-.3-1.967-.351-1.967c-.051 0-2.55-1.56-2.55-1.56v1.846l1.175 1.67"/>
    <path fill="#fff" d="M74.968 105.809h2.35v-1.338l-.799-.393-1.209.194-.342 1.537Z"/>
    <path fill="#05012B" d="m63.279 103.901 5.73-3.005h5.703l5.756 3.744.151 1.169-4.1-3.08v1.349l-1.551 1.731-5.394-.396-1.228-1.538v-2.138l-3.26 2.442h-1.807v-.278Z"/>
    <path fill="#FABCAD" d="m122.668 103.454 3.524 1.439 4.845-.104v-4.604l-6.43-4.123-8.55-.882-2.776 1.315 1.871 2.06 7.516 4.899Z"/>
    <path fill="#5956A5" d="m102.752 91.267-5.52.742-.795 4.702h2.58l3.735-1.276v-4.168Z"/>
    <path fill="#BB3F97" d="M100.133 103.482h-3.092l1.976-6.77 15.984-3.595.806 3.594v1.97l-8.704.326-5.998 4.894-.972-.419Z"/>
    <path fill="#C23653" d="m116.063 91.267 8.85 5.011-4.362 1.366-4.744-.933-1.799-1.706 2.055-3.738Z"/>
    <path fill="#75246E" d="M102.752 91.267h13.311l-.256 5.444h-16.79l3.735-5.444Z"/>
    <path fill="#FFCC54" d="m113.033 101.776.298-3.094h-4.505l-2.428 4.058 6.635-.964Z"/>
    <path fill="#F7934E" d="m120.551 106 5.028 1.074-2.605-3.404-2.423-2.111-.736 2.946-.793.5 1.529.995Zm-13.232-4.224 2.842-3.142-3.763-.467-3.193 2.538-3.072 2.777v1.992l.972.222 6.375-2.956-.057-.807"/>
    <path fill="#F7934E" d="m113.334 111.691 5.711-.95 1.993-3.072-.487-1.669-4.929-1.147s-6.377 3.612-6.183 3.421c.194-.191 3.881 3.417 3.881 3.417"/>
    <path fill="#E25D7D" d="m111.414 108.619 1.917 3.072-6.666-.983-5.349-3.227-.211-1.784 4.927-.051 5.61 1.962-.228 1.011Z"/>
    <path fill="#FFCC54" d="m104.318 105.848.32.576s6.681 2.215 6.776 2.184c.096-.031 6.11-.697 6.11-.697l.141-1.686-10.447-1.386-2.9 1.009Z"/>
    <path fill="#C23653" d="m113.033 101.776 6.782 2.729.736 1.495-1.337.025-5.883-2.287-.849-1.459.551-.503Z"/>
    <path fill="#882B68" d="M101.105 105.697v-.588l6.214-3.333h5.714l.298.964-6.228.998-5.998 1.959Z"/>
    <path fill="#05012B" d="m102.752 102.195 4.781-2.786 7.9.121 7.541 4.14-1.099-1.636-6.43-3.867h-9.047l-3.193 2.538-.453 1.49Z"/>
    <path fill="#9DDAE6" d="m117.665 106.436-3.204.281.925-2.825 2.88 1.11-.601 1.434Z"/>
    <path fill="#5956A5" d="m119.214 106.025-1.549.411.126-1.583 1.423 1.172Zm-14.896-.166-2.254-.146.396-.548 2.574-1.011-.716 1.705Z"/>
    <path fill="#00ADDA" d="m105.869 106-1.551-.14.219-1.445 3.142-1.405.801.837-2.611 2.153Z"/>
    <path fill="#fff" d="m108.011 106.239-2.142-.239.104-1.225 2.364-.408-.326 1.872Z"/>
    <path fill="#05012B" d="m101.105 105.697 6.375-2.957h5.851l5.214 1.9.669 1.385-3.559-1.79-.073 1.383-1.121 1.099-6.45-.478-.5-1.169.095-1.816-5.542 2.459-.959-.016Z"/>
    <path fill="#265EAC" d="m108.48 103.847 2.206.135.223 1.186 1.973.354.193-.947 1.824.25-.46 1.144-.891.399-4.567-.458-.594-.697.093-1.366Z"/>
    <path fill="#fff" d="M113.587 103.67h-1.105v1.105h1.105v-1.105Z"/>
    <path fill="#265EAC" d="m69.119 102.729 2.209.135.222 1.186 1.973.354.191-.947 1.824.25-.458 1.144-.89.399-4.568-.458-.593-.697.09-1.366Z"/>
    <path fill="#fff" d="M74.226 102.552H73.12v1.104h1.105v-1.104Z"/>
    <path fill="#A4DDED" d="m111.502 19.422 13.442.973 4.975 3.878-29.477-3.12 11.06-1.73Z"/>
  </g>
  <defs>
    <linearGradient id="b" x1="83" x2="90.5" y1="11" y2="197" gradientUnits="userSpaceOnUse">
      <stop stop-color="#F74874"/>
      <stop offset="1" stop-color="#F74874" stop-opacity=".5"/>
    </linearGradient>
    <clipPath id="a">
      <rect width="196" height="196" fill="#fff" rx="98"/>
    </clipPath>
  </defs>
</svg>
